<?xml version="1.0" encoding="UTF-8"?>
<svg id="Layer_1" data-name="Layer 1" xmlns="http://www.w3.org/2000/svg" viewBox="0 0 567 994">
  <defs>
    <style>
      .cls-1 {
        fill: #fff;
      }
    </style>
  </defs>
  <path d="M123.68,520.39c1.95,3.17,2.12,6.18,1.03,9.54-.82,2.55-4.37,3.29-8.35,2.85l2.87-9.35,4.44-3.04Z"/>
  <path d="M277.02,0c-6.72,18.21-15.21,30.08-33.67,38.29-12.19,5.42-21.18,14.97-24.01,28.38-7.2-2.92-14.64-3.43-22.38-1.78-20.44,4.37-34.53,22.26-35.06,42.96-17.92-8.7-38.45-6.74-54.2,4.15s-24.63,29.38-22.82,49.04c-20.09-6.85-41.66-2.17-57.11,13.04-11.62,11.44-19.56,28.07-19.56,45.34l-.24,763.31,59.79.07,58.22-.05,74.97-1.1c15.61-.23,30.29-.93,45.14-3.32l-42.14-1.22-38,.98c-5.72,2.46-10.86-2.05-15.98-2.05l-133.5-.2.12-756.08c0-11.3,4.37-22.25,10.19-30.77,12.96-18.97,35.95-26.78,57.26-18.74l12.23,4.61c-2.56-10.86-3.75-20.24-1.2-29.84,4.13-15.55,16.19-26.85,29.85-31.14,16.71-5.24,32.47-.82,46.34,10.15-2.25-15.69-.35-29.35,9.77-40.07,12.03-12.75,30.83-13.46,45.89-4.24-.32-15.44,7.53-27.24,20.7-33.02,12.84-5.63,23.96-13.67,30.55-26.78,5.86,11.18,15.08,19.17,26.39,24.58,16.52,7.89,24.48,14.73,26.2,35.29,19.41-12.13,43.25-6.35,53.59,13.88,4.65,9.09,4.78,18.79,3.61,30.34,16.08-12.78,36.35-16.54,54.34-7.29,21.36,10.99,28.81,34.57,21.43,58.93,16.88-9.55,35.96-11.93,52.98-2.02,15.54,9.05,27.57,26.68,27.58,45.91l.19,756.2-137.29.2c-6.48,0-12.58,3.71-19.3,1.45l-22.89-.71-35.98,1.58-12.11,1.28,23.47,1.3,94.65,1.88,118.33-.19-.35-764.26c0-20.79-13.06-40.33-28.81-50.96-15.22-10.28-32.37-11.74-48.8-6.34,2.18-23.56-11.19-44.69-32.3-54.2-14.67-6.61-30.57-6.08-45.58,1.18-.9-19.43-13.9-36.22-32.43-42.12-9.17-2.92-18.25-2.54-27.13,1.21-2.76-12.51-11.03-22.26-22.49-27.62-20.4-9.54-28.2-18.6-35.64-39.44h287.17s-.02,993.99-.02,993.99h-285.87s7.33-12,7.33-12c2.29.24,5.33-.57,6.17-1.75,2.55-3.62-9.95-9.34-15.57-19.9l-15.81,18.28c-1.3,1.51,3.53,5.36,6.28,3l7.45,12.36H0S0,0,0,0h277.02ZM124.71,529.93c1.88-4,4.68-7.16,9.42-8.23l-.22-4.13-7.07,5.37-3.17-2.55,4.1-4.66,2.14-2.08c.47-.45,2.31.11,2.47.15-.13-2.16.26-4.99,1.14-7.16l2.3-5.64-1.86-1.03-4.28,11.96-6.41-1.9.97-3.23c.18-.6,2.21.05,2.77.05l3.37-2.41-4.4-1.64,1.45-7.53,7.4,3.67.74.81,4.34.51,15.55,2.76c-1.13-5.48-4.86-2.95-7.56-3.85l-18.65-6.21c-.56-.19-2.06-1.3-1.93-1.81l.67-2.67c7.35,3.87,13.13.04,22.16,5.78-.04-1.39-1.48-3.28-2.56-3.62l-11.56-3.65c-3.48-1.1-6.89-3.02-6.44-7.27l18.14,6.25c-3.98-5.33-11.14-5.5-15.64-7.98l-2.85-2.42c-1.36-1.16-6.48,10.38-4.68,19.68-7.58,18.38-12.21,36.51-16.11,55.56l-6.79,33.16c-2.88,14.06-3.74,27.97-4.51,42.3l-1.55,28.52c-.31,5.77-.56,10.45.03,16.35.96,9.71-.09,19.9-.11,30.29,5.78.53,6.94-4.11,11.21-8.02l-4.87,49.55c-1.92,19.53-.55,38.25.18,57.97,8.5,4.47,17.24,7.6,25.57,9.62l2.26,19.11,2.12,18.15-1.2,8.77c-.42,3.06-.57,5.28,1.1,8.64-5.23,6.01-11.66,12.43-18.43,17.16-10.79,7.54-26.57,7.35-24.5,14.77.8,2.89,6.71,6.56,9.73,6.6,5.96.08,6.96,5.39,15.83.77,7.28,1.56,13.98.83,20.64-3.45,10.99-7.07,20.84-1.01,28.15-6.66,3.91-3.02,4.55-9.37,3.18-13.66l-5.01-15.69c3.18-2.76,3.16-6.08.88-8.8,1.95-2.77,2.1-5.81-.56-8.49l5.24-31.68,22.71-1.61.05,6.78,12.39-.73,3.38,25.08c-1.39,2.96-1.7,6.08-1.75,9.13s-1.93,5.35,1.42,8.68l-5.15,15.71c-1.34,4.09-1.89,9.27,1.16,12.67,7.65,8.52,19.2-.99,32.86,5.29,11.83,5.43,17.18.97,25.28,2.67,3.37.71,6.43-.37,8.58-2.98,2.55.36,4.95.18,7.16-1.15,1.75-1.05,5.04-5.26,3.61-6.86-4.65-4.41-10.49-4.72-16.13-6.62-10.6-3.57-20.34-10.84-27.76-18.57,1.83-4.41,1.6-13.7-.08-17.05l5.72-36.25,23.26-8.55,1.53-35.85c1.67-39.22.62-77.56-1.21-116.85l-3.38-72.47,6.57-10.42,8.66-14.37-1.34-19.12,8.37-6.77-8.61-47.13c3.53-.76,6.04-2.73,6.77-5.8,2.49-10.55,2.33-21-.4-31.31-3.9-14.74-7.67-26.66-21.78-34.98l-7.24,1.92-1.51-11.06,24.64-6.63,5.91,36.35,2.41,21.51c2.79-5.3,2.35-11.32,1.52-17.23l-5.78-40.92c-2.51-17.75-5.19-34.85-8.84-52.48-1.29-6.2-4.45-13.09-8.9-17.12l-5.09-4.6c-3.49-3.16-10.52-5.34-15.6-6.74-1.46-.4-5.07-.04-6.46-.56l-22.62-8.42-1.34-9.46c5.11.03,8.46-.11,11.57-1.23,5.12-1.85,4.96-5.76,6.04-9.85l3.68-13.93c1.91-.29,6-2.68,5.15-4.9l-5.14-13.43c1.45-3.44,3.39-7.33,3.26-10.54l-.34-8.16c6.64-10.05,10.04-19.71,3.12-29.48,1.16-3.59,2.04-7.93.36-11.58-3.37-7.32-17.19-13-27.27-11.98-20.07-6.73-44.07.57-58.05,16.53-.87-3.1-2.32-7.3-4.39-9.35-5.87-5.83-12.95-3.36-17.59,2.09-2.62,3.08-4.38,5.93-3.62,9.99.54,2.9,4.16,7.73,8.03,7.03l9.85-1.78-.89,1.72,1.22.99c1.31,7.14-6.33,4.49-11.25,17.45l-3.52,9.27-1.52-12.92c2.31-7.08,9.29-10.6,15.35-13.53l-.9-1.33-6.61,2.21c-7.95,2.66-13.89,10.62-13.25,18.64l3.67,1.42c1.64.64-1.13,7.23.79,8.8.97.8,3.49,2.14,4.33,2.4,1.33-10.56,3.42-18.71,11.6-24.65l-2.79,7.45c-.78,2.09.78,6.11,1.01,8.21,1.2,10.69,7.54,23.51,14.57,32.77-3.21,5.79-9.2,12.9-13.85,17.64-1.03,1.05-1.84,5.32-.77,6l4.22,2.67c.44,2.3,1.62,5.4,3.27,6.48,2.85,1.87,5.87,1.19,8.97.11s7.25.11,8.1-4.96l-6.33,1.63c2.38-7.88,3.88-15.12,4.49-22.43l-1.24-.88c-1.4,12.97-6.2,29.37-12.88,21.79,4.03-4.84,7.25-10.27,7.46-15.79l-8.41,13.95-1.21-2.4c-1.38-2.73-3.54.27-4.67-3.82-.13-.48,1.08-.33,2.46-.24,4.72-5.65,8.8-11.22,12.61-17.31l5.01,3.59c.48.34.69.53.96.61l6.61,2.12c-2.4,3.36-2.92,7.01-.41,10.37l-5.29,19.82-26.28,8.59-25.27,7.77c-15.08,4.64-20,16.93-24.27,30.93l-12.85,42.17c-5.1,16.75-9.69,32.91-13.17,49.98-1.12,5.49.76,10.96,4.91,14.35,7.32,5.97,15.34,10.58,24.63,12.61l26.88,5.87c1.95,2.13,3.69,2.87,6.88,3.58l14.36,3.2c.7.16,2.66-1.59,3.16-1.18l2.3,1.91c6.6,5.45,4.25,18.69,16.67,30.96,3.91,3.87,8.49,4.22,13.41,3.05l21.86-5.22c-17.28,34.19-35.68,66.76-58.13,97.54l-18.97,24.22-21.47,24.39.87-20.51c9.68-5.95,17.38-12.95,24.47-21.22,7.69-8.96,15.83-17.04,21.56-27.82l-22.37,25.1c-7.17,8.05-14.53,14.97-23.53,21.03l1.24-18.13,4.86-2.18-4.46-.11.89-14.03c16.28-6.05,32.45-16.93,42.39-31.24-13.43,11.11-24.34,22.39-41.94,27.72l2.44-9.87c12.82-5.75,24.43-12.29,35.02-21.31,15.47-13.19,30.03-27.27,40.79-45.47l-31.58,33.72c-12.29,13.12-27.28,22.33-43.71,30.63l3.7-17.96c9.83-3.01,19.42-6.9,26.81-13.67-8.97,2.77-15.65,10.79-26.3,10.95l3.13-15.38,6.18.23c-.85-2.17-3.11-3.37-5.34-3.27l.07-4.03c17.81-1.42,36.43-11.21,50.23-23.6-5.22,1-8.48,4.56-12.75,7.15-9.01,5.46-18.14,11.22-28.18,9.95ZM308.27,805.58l-4.9-1.05c-.91,9.25,1.98,19.72,6.15,18.91,5.05-.99,8.13-12.7,2.28-22.06,3.57.88,6.9.73,7.67-2.32l-3.98.4c-.73.07-1.34-1.3-1.56-2.82l25.33,8.57c1.33,13.46,5.83,27.61,5.08,41.48l-.44,8.15c-.14,2.59-3.01,5.36,1.35,8.51l-11.54,10.4c-15.04,13.55-34.93,8.92-32.55,18.17.51,1.99,2.94,3.67,5.43,4.31l2.27,1.98c.47.41,1.44-1.38,1.24-1.97l-1.74-5.1-2.02.93c-.34.16-1.59-1-1.32-1.26,1.49-1.45,5.57-3.66,7.77-3.79,10.2-.61,17.38-5.18,25.04-11.24,4.38-3.47,8.61-7.65,11.49-12.18,6,1.4,13.18,1.79,19.46-.05.17,9.45,7.64,17.65,2.47,23.11-4.27,4.51-11.92-1.57-28.78,6.68-5.15,2.52-11.29,2.8-16.57,1.97-4.09-.65-10.46,4.5-12.05-2.43l7.12-2.36c-2.75-1.45-8.96-.18-9.86,3.61-1.14,4.79,4.73,7.03,8.67,5.92,7.75-2.2,12.73,2.39,28.44-4.62,10.12-4.51,21.42,2.32,27.67-5.54,6.29-7.9-3.65-20.5-2.29-26.28,1.32-5.6,2.2-13.1-.44-16.93l4.45-34.04c11.7,1.25,23.17,1.34,35.3.65l4.38,33.37c-1.77,3.91-1.92,13.83.31,17.62l-4.72,16.88c-1,3.59-.14,8.5,2.4,11,6.79,6.66,18.08-.39,29.55,7.23,5.8,3.07,12.16,3.96,18.38,2.11,4.26,3.23,9.08,2.55,12.84-.09,3.43,1.1,10.38-2.96,11.21-5.91,1.75-6.24-11.95-6.71-21.73-13.13-7.3-4.8-14.38-11.5-19.51-18.15,2.28-3.24,2.03-5.61,2.01-8.98-.01-2.99-.15-5.67-1.9-8.44l5.79-40.4c14.64-4.31,27.87-9.64,41.26-16.27l-14.11-73.91-5.96-27.89,4.82,2.14c-2.25-13.64-3.98-25.89-4.31-39.2l-.79-32.27-1.95-36.07c-.18-3.41-1.11-6.38-1.69-9.61-2.96-16.49-5-32.53-9.72-48.67-4.38-14.96-9.48-29.29-17.36-42.66-1.81-3.07-2.46-5.15-3.55-8.93-1.64-5.69-7.8-9.91-7.99-16.48,16.09,9.92,50.3,25.25,53.08,7.81.84-5.26,1.67-11.77.68-17.4l-6.57-37.05-.25-6.14-4.84-22.06c-4.78-21.82-1.56-39.47-26.79-46.6l-19.72-5.57-12.26-4.45-3.93-11.15c-1.2-3.39-.63-9.66.92-12.98l3-6.42,4.15,4.3c-4.55,1.58-5.49,5.29-5.48,9.37l-2.81,2.17c-.45.35,2.11,2.18,2.68,2.17l13.28-.15c.83,0,2.6-1.96,2.25-2.6-2.74-5.03-1.34-9.53-7.67-11.24,3.52-1.33,2.49-5.78,3.56-7.79l6.9-12.9c2.62,15.91,5.65,31.11,9.79,46.32,1.02,3.73,2.4,7.64,5.86,9.5-3.5-12.98-6.79-24.32-9.21-36.68l-6.55-33.45c-1.72-8.81-4.95-17.08-9.22-24.91-9.81-17.96-38.21-25.33-54.34-12.41-9.76,7.82-15.22,22.01-11.35,34,1.5,4.64.12,6.88-.27,11.14-2.06,22.31-5.25,43.55-12.48,65.3,7.86-8.46,8-19.38,10.35-29.41,2.87-12.27,2.67-24.37,4.19-36.36.05,9.56-1.63,18.33,4.66,26.52l-4.16,5.29-3.05,8.89,11.51,1.36c1.12.13,3.35-1.74,4-2.63l6.19,3.22-1.55,12.18-4.98,1.46c-15.36,8.24-35.17,9-43.64,23.33-4.89,8.28-6.81,17.16-9.95,26.66-.35-2.67-.13-6.18.72-8.96,3.94-12.89,8.96-24.51,14.06-36.95,7.15-17.43,11.36-35.19,15.51-53.6,2.79-12.41,4.51-24.5,8.32-36.38,7.46-23.28,31.65-33.92,53.91-25.19,23.77,9.32,26.66,25.51,32.32,48.41,6.5,26.33,13.52,51.92,24.03,76.96,8.46,20.17,15.86,39.43,19.91,61.07,5.2,27.77,8.43,55.09,10.57,83.33l2.72,35.94-4.56-.78c-.72,3.71-1.86,6.24-4.11,8.71l-6.6-3.48c-.6-.32-3.32.68-3,1.29.21.4,1,2,1.44,2.1l7.54,1.63c.04.49-.1,1.63-.55,2.05l-2.75,2.6,4.6-.82-.33,8.72-3.35-1.58c-.62-.29-1.53.78-2.92,2.43l5.91,1.08-.56,12.2-.1,2.04c-.02.34,1.29-1.42,1.33-1.76l2.23-15.87-.29-6.86-.96-4.23c3.19-1.17,4.21-1.83,7.49-4.49l1.98,37.84,2.39,29.51-14.41-13.2c-8.56-7.84-14.83-17.25-20.13-26.71,1.01,9.07,7.33,15.04,12.52,21.29,7,8.44,15.22,15.29,23.44,22.41l-1.41,1.92c-2.5-2.89-4.19-5.33-8-5.87l9.07,9.87c.36.4.29,3.18-.14,2.85s-1.19-.96-1.61-1.42l-15.65-17.32-16.48-20.43c3.48,11.9,12.43,19.89,20.31,28.42l13.01,14.1c1.48,1.61,3.97,6.52,2.54,8.37-8.18,10.56-17.36,19.26-27.87,27.23-1.88,1.42-2.97,2.78-2.36,5.77,13.18-9.24,24.77-19.96,34.09-33.32-3.09-18.07-4.29-35.04-5.43-53.06l-4.47-71.02c-1.78-28.31-5.21-55.32-10.14-83.14-3.57-20.19-8.21-39.11-16.29-57.97-11.75-27.42-19.91-55.16-27.67-83.96l-7.25-26.91c-3.67-13.63-14.31-23.97-27.31-28.93-16.01-6.11-33.27-4.85-46.48,6.3-14.29,12.06-17.23,33.38-21.12,52.18-4.26,20.56-9.18,40.5-16.8,60.19-6.56,16.96-14.09,32.87-15.03,51.44-.53,10.43-5.14,14.94-6.46,23.68l-1.61,10.63c-6.52,21.96-19.85,61.11,5.45,57.61l-5.96,31.86-3.77,15.07,10.72,9.14-.1,16.84c0,1.45-.09,5.35.77,6.56l13.36,18.78-12.01,77.58-8.76,50.25-10.17,54.73-5.45,32.96c7.25,4.77,14.02,7.38,22.62,8.62l-2.11,7.88,1.26.71c3.74,2.99,2.52,9.95-.79,13.88-2.9-4.37-2.56-9.5.06-13.26l-1.15-1.17ZM112.44,307.55l3.69,3.48c.5.48,1.94.5,2.55.22.85-.39-3.33-8.33-9.19-8.07-3.47.15-6.94,2.92-7.96,6.49-.98,3.38-.67,6.93.92,9.47l1.62-7.93c.16-.8,2.61-2.6,3.08-1.92l2.37,3.4,2.93-5.13ZM367.77,315.49l-1.97,4.44-3.47-6.18-1.97,5.29,5.97,5.72c1.78-2.65,2.78-4.06,3.1-5.3.27-1.03-1.35-3.72-1.66-3.96ZM424.31,318.03l-6.35-1.78c-.7.17-2.57,3.22-1.81,3.96l3.84,3.74c1.53-.04,4.73-4.2,4.31-5.91ZM474.74,535.58l.95-17.5.9-16.65.54-24.32-2.02-2.15-.56,33.61-1.08,23.93-.1,15.6,1.36-12.52ZM487.54,505.16c.96-6.57.22-12.36-1.16-18.24-.7,6.54-.55,12.42,1.16,18.24ZM142.49,545.23l9.15-9.14-.93-1.91-5.77,6.2c-1.06-.11-4.02.62-3.67,1.54l1.23,3.31ZM113.24,605.03c8.37-4.28,13.64-11.3,18-19.06-3.22,2.13-5.41,4.8-7.36,7.97l-10.64,11.09ZM476.1,631.08c8.43-5.96,16.21-11.81,21.24-20.85-4.7,2.57-7.51,7.61-11.7,11.43-3.36,3.06-8.37,4.99-9.55,9.42ZM290.61,932.59c2.91-3.34,3.54-6.67,2.67-11.62,2.6,1.49,6.23,2.72,7.68-.09.92-1.79-1.72-5.2-3.47-4.87-1.32.25-3.49,1.59-4.91,2.64l-5.36-7.71-8.24-9.88-13.28,16.98c-1.43-1.57-4.02-2.48-5.79-1.75-1.92.79-2.91,5.03-1.27,6.03,1.2.73,4.76.2,5.89-.1-.08,3.23.52,7.13,2.63,9.54,4.99,5.7,8.76,11.6,11.89,18.86,3.18-6.83,6.9-12.65,11.57-18.03ZM230.11,953.62c-6.81,2.63-13.8-1.58-15.15-8.65-1.8-9.37,6.38-17.87,16.05-18.9,19.39-2.05,37.7,14.53,44.06,33.4,2.29-2.43,2.13-5.29.72-8.12-7.28-14.63-19.36-25.74-35.37-28.94-11.3-2.26-23.03,1.68-27.98,12.03-2.84,5.93-2.52,12.16,1.07,17.33,3.12,4.49,9,7.68,15.41,6.32,3.29-.7,7.12-3.14,8.42-5.39,1.9-3.28,2.19-7.4.77-10.59-2.16-4.85-7.63-6.74-12.06-4.02-.87.54-2.35,2.49-2.3,3.49s1.13,3.13,1.51,3.59l2.51-3.88c.43-.67,3.46-.38,4.2-.03,2.07.98,3.33,4.7,2.97,7.03-.27,1.72-2.37,4.36-4.84,5.31ZM325.48,942.65c.75-.57,3.42-.5,4.12.11l2.96,2.57c2.16-1.62.48-5.65-1.25-6.5-2.15-1.07-5.69-1.22-7.44-.17-3.76,2.24-5.32,5.85-5.08,9.82.2,3.25,2.62,6.96,5.99,8.77,5.02,2.71,10.42,2.42,15.31-.49,3.53-2.1,6.82-6.58,7.34-11.82.94-9.57-5.42-18-14.53-20.98-19.6-6.41-41.1,8.6-51.02,28.09-1.06,2.09-.59,4.98,1.18,6.77,8.14-18.04,24.53-34.31,43.84-31.76,7.53,1,14.41,5.6,15.68,12.85.88,5.05-.05,9.81-3.65,12.48-3.37,2.5-7.54,3.48-11.99,1.46-1.8-.82-3.84-3.71-3.95-5.42s1.12-4.77,2.49-5.79ZM264.4,951.26c-2.01-5.53-12.04-9.34-19.22-4.74-4.66,2.99-5.03,12.32-.66,15.52,3.88,2.84,10.62-1.73,9.69-3.58l-1.48-2.95-2.32,4.25c-.45.82-3.45-.7-4.02-1.46-1.66-2.22-1.12-6.77,1.01-8.5s5.85-2.24,8.64-.75c2.52,1.34,5.16,4.53,5.5,6.77,1.38,8.99-12.28,15.24-22.03,14.46-11.47-.91-21.64-5.54-31.14-11.66l-12.22-7.87c-8.32-5.36-17.96-9.11-27.87-7.7-8.98,1.27-16.18,7.03-17.16,16.23-.44,4.12,2.51,8.73,5.59,10.55,3.66,2.16,7.86,2.81,11.78.8,2.54-1.3,4.68-4,5.02-6.14.41-2.59-1.46-6.37-3.51-7.31-.93-.43-3.82-.01-4.61.48s-1.26,2.55-.74,2.81c2.27.49,4.97,1.72,5.08,3,.09,1.1-1.16,3.43-2.14,4.09-3.43,2.32-7.69,1.08-10.1-1.6-2.18-2.43-2.74-6.43-1.21-9.85,5.22-11.66,22.49-11.28,34.63-3.84,9.45,5.79,18.22,11.96,28.42,16.42,14.52,6.34,30.42,7.27,44.94,1.68l-17.35,1.67c11.78-3.67,20.96-11.27,17.51-20.77ZM306.05,970.38l-8.22,1.1c21.79,6.87,40.39.09,59.27-12.38,7.16-4.73,14.12-8.96,22.4-11.44s17.44-.32,22.21,6.32c2.79,3.88,2.66,8.84-.31,11.8-2.68,2.67-6.95,3.91-10.64,1.43-1.09-.73-2.21-4.05-1.53-5.12,1.09-1.73,8.43-1.93,6-3.56-.6-.4-2.68-1.5-3.51-1.62-3.3-.48-6.58,3.29-6.5,6.56.09,3.53,2.33,6.07,6.14,7.54,5.36,2.06,11.41-.47,14.41-4.91s2.55-11.15-1.33-15.85c-6.54-7.94-18.1-9.24-28.08-5.97-19.13,6.28-33.73,25.33-59.45,26.21-3.75.13-7.12-.62-10.2-1.89l-.68,1.79ZM306.17,968.27c-4.16-1.87-9.35-4.84-9.71-10.55-.25-3.94,3.9-8.42,7.91-9.02,1.89-.28,4.98.41,6.17,1.36,1.41,1.12,2.53,4.73,2.27,6.67-.12.89-1.92,3.29-2.75,3.02l-5.01-1.69c-.36.57.28,3.42,1.33,4.08,1.23.76,4.7,1.1,6.16.17,3.39-2.16,4.88-8.18,2.93-12.14s-6.6-6.29-11.52-5.4c-4.49.81-9.24,4.29-9.98,7.83-1.15,5.44.7,10.42,5.05,13.36l5.85,3.96,1.29-1.64ZM197.86,964.46l-8.02-1.28c-1.07-1.07-3.07-2.59-4.11-2.07-1.19.6-2.74,2.3-2.91,3.44s1.7,3.66,2.85,3.5c3.33-.47,4.15-3.43,12.2-3.59ZM375.3,966.78c1.18-.96.39-4.19-1.34-5.16-1.18-.66-3.35.31-4.91,1.49l-9.11,1.4c10.24.1,10.96,5.84,15.36,2.26Z"/>
  <path class="cls-1" d="M279.83,0c7.44,20.85,15.24,29.9,35.64,39.44,11.46,5.36,19.73,15.11,22.49,27.62,8.88-3.75,17.96-4.12,27.13-1.21,18.53,5.9,31.53,22.68,32.43,42.12,15.01-7.26,30.91-7.79,45.58-1.18,21.11,9.51,34.48,30.64,32.3,54.2,16.43-5.4,33.58-3.93,48.8,6.34,15.75,10.63,28.8,30.17,28.81,50.96l.35,764.26-118.33.19-94.65-1.88-23.47-1.3,12.11-1.28,35.98-1.58,22.89.71c6.72,2.26,12.82-1.44,19.3-1.45l137.29-.2-.19-756.2c0-19.24-12.04-36.87-27.58-45.91-17.02-9.9-36.1-7.52-52.98,2.02,7.38-24.36-.07-47.94-21.43-58.93-17.99-9.25-38.26-5.48-54.34,7.29,1.17-11.55,1.03-21.25-3.61-30.34-10.34-20.23-34.18-26.01-53.59-13.88-1.72-20.57-9.69-27.4-26.2-35.29-11.32-5.41-20.53-13.4-26.39-24.58-6.58,13.11-17.71,21.15-30.55,26.78-13.18,5.78-21.02,17.58-20.7,33.02-15.07-9.22-33.86-8.51-45.89,4.24-10.11,10.72-12.01,24.37-9.77,40.07-13.87-10.97-29.63-15.39-46.34-10.15-13.67,4.29-25.72,15.59-29.85,31.14-2.55,9.6-1.36,18.98,1.2,29.84l-12.23-4.61c-21.31-8.04-44.3-.23-57.26,18.74-5.82,8.52-10.19,19.46-10.19,30.77l-.12,756.08,133.5.2c5.11,0,10.25,4.52,15.98,2.05l38-.98,42.14,1.22c-14.85,2.39-29.53,3.09-45.14,3.32l-74.97,1.1-58.22.05-59.79-.07.24-763.31c0-17.27,7.94-33.9,19.56-45.34,15.45-15.21,37.02-19.89,57.11-13.04-1.81-19.66,7.3-38.32,22.82-49.04s36.28-12.86,54.2-4.15c.54-20.7,14.63-38.59,35.06-42.96,7.74-1.66,15.18-1.15,22.38,1.78,2.83-13.41,11.83-22.96,24.01-28.38C261.81,30.08,270.3,18.22,277.02,0h2.81Z"/>
  <path class="cls-1" d="M281.1,994h-4.15s-7.45-12.36-7.45-12.36c-2.75,2.36-7.58-1.5-6.28-3l15.81-18.28c5.62,10.56,18.12,16.28,15.57,19.9-.83,1.18-3.87,1.98-6.17,1.75l-7.33,12ZM278.9,988.02l6.77-11.13-6.52-10.09-6.68,10.83,6.44,10.39Z"/>
  <path class="cls-1" d="M264.4,951.26c3.45,9.5-5.73,17.09-17.51,20.77l17.35-1.67c-14.52,5.59-30.42,4.66-44.94-1.68-10.2-4.45-18.97-10.63-28.42-16.42-12.14-7.44-29.41-7.82-34.63,3.84-1.53,3.42-.97,7.42,1.21,9.85,2.42,2.69,6.67,3.92,10.1,1.6.97-.66,2.22-2.99,2.14-4.09-.1-1.29-2.8-2.51-5.08-3-.52-.26-.06-2.32.74-2.81s3.68-.91,4.61-.48c2.05.94,3.93,4.73,3.51,7.31-.34,2.14-2.48,4.85-5.02,6.14-3.92,2.01-8.12,1.36-11.78-.8-3.07-1.81-6.02-6.43-5.59-10.55.98-9.2,8.19-14.95,17.16-16.23,9.91-1.41,19.55,2.34,27.87,7.7l12.22,7.87c9.5,6.12,19.67,10.76,31.14,11.66,9.75.77,23.41-5.47,22.03-14.46-.34-2.24-2.98-5.43-5.5-6.77-2.79-1.48-6.42-1.05-8.64.75s-2.67,6.29-1.01,8.5c.57.75,3.57,2.28,4.02,1.46l2.32-4.25,1.48,2.95c.93,1.85-5.81,6.42-9.69,3.58-4.37-3.2-4-12.53.66-15.52,7.19-4.61,17.21-.8,19.22,4.74Z"/>
  <path class="cls-1" d="M325.48,942.65c-1.36,1.02-2.59,4.13-2.49,5.79s2.15,4.6,3.95,5.42c4.45,2.02,8.63,1.03,11.99-1.46,3.59-2.66,4.53-7.43,3.65-12.48-1.26-7.25-8.14-11.85-15.68-12.85-19.3-2.56-35.69,13.72-43.84,31.76-1.77-1.79-2.24-4.68-1.18-6.77,9.92-19.49,31.42-34.5,51.02-28.09,9.1,2.98,15.46,11.41,14.53,20.98-.51,5.24-3.81,9.72-7.34,11.82-4.88,2.91-10.29,3.2-15.31.49-3.37-1.82-5.79-5.52-5.99-8.77-.24-3.97,1.32-7.58,5.08-9.82,1.76-1.05,5.29-.89,7.44.17,1.73.86,3.41,4.89,1.25,6.5l-2.96-2.57c-.71-.61-3.37-.68-4.12-.11Z"/>
  <path class="cls-1" d="M306.73,968.59c3.08,1.27,6.45,2.02,10.2,1.89,25.72-.88,40.32-19.92,59.45-26.21,9.98-3.28,21.54-1.97,28.08,5.97,3.88,4.71,4.39,11.33,1.33,15.85s-9.05,6.97-14.41,4.91c-3.81-1.47-6.05-4-6.14-7.54-.08-3.28,3.2-7.04,6.5-6.56.83.12,2.9,1.22,3.51,1.62,2.43,1.63-4.91,1.84-6,3.56-.68,1.08.44,4.39,1.53,5.12,3.69,2.49,7.96,1.25,10.64-1.43,2.97-2.96,3.09-7.92.31-11.8-4.77-6.64-14.22-8.72-22.21-6.32s-15.25,6.71-22.4,11.44c-18.88,12.48-37.48,19.25-59.27,12.38l8.22-1.1c-.95-.47-1.08-.41-1.17-.47l-5.85-3.96c-4.35-2.94-6.2-7.92-5.05-13.36.75-3.55,5.49-7.02,9.98-7.83,4.92-.89,9.62,1.54,11.52,5.4s.46,9.98-2.93,12.14c-1.46.93-4.93.59-6.16-.17-1.05-.65-1.69-3.51-1.33-4.08l5.01,1.69c.83.28,2.63-2.13,2.75-3.02.26-1.94-.86-5.54-2.27-6.67-1.2-.95-4.28-1.64-6.17-1.36-4.01.6-8.16,5.08-7.91,9.02.36,5.71,5.55,8.68,9.71,10.55l.56.32Z"/>
  <path class="cls-1" d="M230.11,953.62c2.47-.95,4.57-3.59,4.84-5.31.36-2.32-.89-6.05-2.97-7.03-.74-.35-3.77-.64-4.2.03l-2.51,3.88c-.38-.47-1.46-2.59-1.51-3.59s1.42-2.95,2.3-3.49c4.43-2.73,9.91-.84,12.06,4.02,1.42,3.19,1.13,7.31-.77,10.59-1.3,2.24-5.13,4.68-8.42,5.39-6.41,1.37-12.28-1.82-15.41-6.32-3.59-5.17-3.91-11.4-1.07-17.33,4.95-10.35,16.67-14.29,27.98-12.03,16,3.19,28.09,14.31,35.37,28.94,1.41,2.83,1.57,5.69-.72,8.12-6.37-18.87-24.67-35.45-44.06-33.4-9.67,1.02-17.85,9.52-16.05,18.9,1.36,7.07,8.34,11.28,15.15,8.65Z"/>
  <path class="cls-1" d="M290.61,932.59c-4.68,5.38-8.4,11.2-11.57,18.03-3.13-7.26-6.9-13.16-11.89-18.86-2.11-2.41-2.71-6.31-2.63-9.54-1.12.3-4.69.83-5.89.1-1.64-1-.65-5.23,1.27-6.03,1.77-.73,4.36.18,5.79,1.75l13.28-16.98,8.24,9.88,5.36,7.71c1.41-1.05,3.59-2.38,4.91-2.64,1.75-.34,4.39,3.08,3.47,4.87-1.45,2.81-5.08,1.58-7.68.09.87,4.95.24,8.28-2.67,11.62ZM279.3,945.04l8.64-16.14c1.36-2.53,1.11-7.7-.69-9.93l-8.23-10.19-8.18,10.33c-1.65,2.09-2.23,7.62-.94,9.82l9.4,16.1Z"/>
  <path class="cls-1" d="M375.3,966.78c-4.4,3.58-5.12-2.16-15.36-2.26l9.11-1.4c1.55-1.18,3.73-2.15,4.91-1.49,1.73.97,2.52,4.2,1.34,5.16Z"/>
  <path class="cls-1" d="M197.86,964.46c-8.05.16-8.86,3.12-12.2,3.59-1.14.16-3.02-2.36-2.85-3.5s1.72-2.84,2.91-3.44c1.05-.52,3.04,1,4.11,2.07l8.02,1.28Z"/>
  <polygon points="278.9 988.02 272.46 977.63 279.14 966.8 285.67 976.89 278.9 988.02"/>
  <path d="M279.3,945.04l-9.4-16.1c-1.29-2.2-.72-7.73.94-9.82l8.18-10.33,8.23,10.19c1.8,2.23,2.05,7.39.69,9.93l-8.64,16.14Z"/>
  <g>
    <g>
      <path class="cls-1" d="M308.89,805.42l2.11-7.88c-8.6-1.25-15.37-3.85-22.62-8.62l5.45-32.96,10.17-54.73,8.76-50.25,12.01-77.58-13.36-18.78c-.86-1.21-.78-5.11-.77-6.56l.1-16.84-10.72-9.14,3.77-15.07,5.96-31.86c-25.3,3.49-11.97-35.65-5.45-57.61l1.61-10.63c1.33-8.74,5.94-13.25,6.46-23.68.94-18.57,8.46-34.48,15.03-51.44,7.62-19.69,12.55-39.63,16.8-60.19,3.89-18.8,6.84-40.12,21.12-52.18,13.21-11.15,30.47-12.41,46.48-6.3,13,4.97,23.64,15.31,27.31,28.93l7.25,26.91c7.76,28.8,15.92,56.54,27.67,83.96,8.08,18.86,12.71,37.78,16.29,57.97,4.93,27.82,8.36,54.83,10.14,83.14l4.47,71.02c1.13,18.02,2.33,34.99,5.43,53.06-9.32,13.36-20.91,24.08-34.09,33.32-.61-2.99.48-4.34,2.36-5.77,10.51-7.97,19.69-16.67,27.87-27.23,1.43-1.84-1.06-6.76-2.54-8.37l-13.01-14.1c-7.87-8.53-16.82-16.52-20.31-28.42l16.48,20.43,15.65,17.32c.42.46,1.17,1.08,1.61,1.42s.5-2.45.14-2.85l-9.07-9.87c3.82.54,5.5,2.98,8,5.87l1.41-1.92c-8.22-7.12-16.44-13.97-23.44-22.41-5.19-6.25-11.51-12.22-12.52-21.29,5.31,9.46,11.57,18.87,20.13,26.71l14.41,13.2-2.39-29.51-1.98-37.84c-3.28,2.66-4.3,3.31-7.49,4.49l.96,4.23.29,6.86-2.23,15.87c-.05.34-1.35,2.1-1.33,1.76l.1-2.04.56-12.2-5.91-1.08c1.39-1.66,2.3-2.73,2.92-2.43l3.35,1.58.33-8.72-4.6.82,2.75-2.6c.45-.42.58-1.57.55-2.05l-7.54-1.63c-.44-.1-1.23-1.69-1.44-2.1-.32-.6,2.4-1.6,3-1.29l6.6,3.48c2.25-2.47,3.39-5,4.11-8.71l4.56.78-2.72-35.94c-2.14-28.23-5.37-55.55-10.57-83.33-4.05-21.64-11.44-40.89-19.91-61.07-10.51-25.04-17.53-50.63-24.03-76.96-5.66-22.9-8.55-39.09-32.32-48.41-22.26-8.73-46.45,1.92-53.91,25.19-3.81,11.88-5.52,23.97-8.32,36.38-4.14,18.4-8.36,36.16-15.51,53.6-5.1,12.44-10.12,24.06-14.06,36.95-.85,2.78-1.07,6.28-.72,8.96,3.14-9.49,5.06-18.37,9.95-26.66,8.46-14.33,28.27-15.1,43.64-23.33l4.98-1.46,1.55-12.18-6.19-3.22c-.65.88-2.89,2.76-4,2.63l-11.51-1.36,3.05-8.89,4.16-5.29c-6.29-8.19-4.61-16.96-4.66-26.52-1.51,11.98-1.31,24.08-4.19,36.36-2.35,10.04-2.49,20.95-10.35,29.41,7.23-21.75,10.43-42.99,12.48-65.3.39-4.27,1.77-6.5.27-11.14-3.87-11.99,1.58-26.18,11.35-34,16.13-12.92,44.53-5.56,54.34,12.41,4.27,7.82,7.5,16.09,9.22,24.91l6.55,33.45c2.42,12.37,5.71,23.71,9.21,36.68-3.46-1.86-4.84-5.76-5.86-9.5-4.14-15.21-7.17-30.41-9.79-46.32l-6.9,12.9c-1.07,2-.05,6.46-3.56,7.79,6.32,1.71,4.93,6.21,7.67,11.24.35.64-1.41,2.59-2.25,2.6l-13.28.15c-.57,0-3.13-1.82-2.68-2.17l2.81-2.17c-.01-4.08.93-7.8,5.48-9.37l-4.15-4.3-3,6.42c-1.55,3.32-2.12,9.59-.92,12.98l3.93,11.15,12.26,4.45,19.72,5.57c25.23,7.13,22.01,24.79,26.79,46.6l4.84,22.06.25,6.14,6.57,37.05c1,5.63.16,12.14-.68,17.4-2.78,17.44-36.98,2.11-53.08-7.81.2,6.56,6.35,10.79,7.99,16.48,1.09,3.78,1.74,5.86,3.55,8.93,7.88,13.38,12.98,27.7,17.36,42.66,4.72,16.13,6.76,32.18,9.72,48.67.58,3.24,1.51,6.21,1.69,9.61l1.95,36.07.79,32.27c.33,13.31,2.06,25.56,4.31,39.2l-4.82-2.14,5.96,27.89,14.11,73.91c-13.39,6.63-26.62,11.96-41.26,16.27l-5.79,40.4c1.75,2.77,1.89,5.45,1.9,8.44.01,3.37.27,5.75-2.01,8.98,5.13,6.65,12.21,13.36,19.51,18.15,9.78,6.42,23.48,6.89,21.73,13.13-.83,2.95-7.78,7.01-11.21,5.91-3.75,2.64-8.58,3.33-12.84.09-6.21,1.85-12.58.95-18.38-2.11-11.47-7.61-22.77-.57-29.55-7.23-2.54-2.5-3.41-7.41-2.4-11l4.72-16.88c-2.23-3.79-2.08-13.7-.31-17.62l-4.38-33.37c-12.13.69-23.6.6-35.3-.65l-4.45,34.04c2.64,3.83,1.76,11.32.44,16.93-1.36,5.78,8.57,18.38,2.29,26.28-6.25,7.86-17.55,1.03-27.67,5.54-15.71,7-20.68,2.42-28.44,4.62-3.94,1.12-9.81-1.13-8.67-5.92.91-3.79,7.11-5.05,9.86-3.61l-7.12,2.36c1.59,6.93,7.96,1.79,12.05,2.43,5.28.83,11.42.55,16.57-1.97,16.87-8.25,24.52-2.17,28.78-6.68,5.17-5.46-2.3-13.66-2.47-23.11-6.28,1.85-13.46,1.45-19.46.05-2.88,4.52-7.11,8.71-11.49,12.18-7.67,6.06-14.84,10.63-25.04,11.24-2.21.13-6.28,2.34-7.77,3.79-.27.26.98,1.42,1.32,1.26l2.02-.93,1.74,5.1c.2.59-.76,2.38-1.24,1.97l-2.27-1.98c-2.49-.64-4.92-2.32-5.43-4.31-2.38-9.25,17.51-4.62,32.55-18.17l11.54-10.4c-4.36-3.15-1.49-5.92-1.35-8.51l.44-8.15c.75-13.87-3.76-28.01-5.08-41.48l-25.33-8.57c.22,1.52.83,2.89,1.56,2.82l3.98-.4c-.77,3.05-4.1,3.2-7.67,2.32,5.85,9.36,2.77,21.07-2.28,22.06-4.17.81-7.06-9.66-6.15-18.91l4.9,1.05.62-.15ZM377.98,231.9c3.54-2.14,6.27-5.77,8.02-9.79-15.26,1.11-26.59,12.9-28.08,28.05,2.47-5.49,5.55-9.51,10.71-12.62l9.36-5.64ZM359.51,258.85c4.81-1.55,8.66-1.13,12.08,1.18,6.78,4.59,3.9,14.85-.49,24.23l4.03,3.18c-1.05,2.11-6.98-1.02-6.19-3.23l4.77-13.43c-5.15,3.46-9.31,3.54-13.41.17.21,4.97-.46,10.14.45,14.76,1.83,9.27,7.35,18.06,14.73,23.67,4.17,3.17,10.51,1.42,15.01.04,10.13-3.29,19.2-9.21,23.86-18.76l.87-3.75c.12-.51,1.91,1.48,1.68,1.16l5.34-.62c7.59-7.79,4.76-17.7,5.05-17.81l1.86-.73c-1.61-8.09-3.6-15.76-6.78-23.21-6.62-13.42-18.7-22.52-33.67-23.28l-2.87,5.32c-.39.72-1.13,2.93-.56,3.4l2.29,1.89.38-5.24c4.68,7.72,13.28,11.45,17.72,18.51s10.06,13.21,17.52,17.57c1.38.81,3.47,3.41,4.73,4.92l-5.47.11c-3.14.06-3.17,8.05-7.28,12.03-4.31,4.16,3.2-15.95-11.6-25.52-7.78-5.03-14.37-11.56-17.45-20.03l-2.26.03c-2.9.03,3.63,3.37,2.55,8.97-.33,1.7-3.46,3.18-4.83,4.52-.45.73-.96,3.6-1.81,3.57s-3.16-.68-2.96-1.5l.65-2.7-3.37-3.19c-.72-.68.03-3.78.5-4.6,1.93-1.78,4.32-4.03,5.45-6.46-10.47,6.56-20.59,14.28-20.51,24.81ZM373.09,270.28c.84-3.9-.97-7.4-3.28-8.8-2.9-1.75-6.7-1.83-9.84-.39l.31,6.64c4.96-3.93,8.95-1.34,12.81,2.54ZM422.69,265.54l-9.58-5.08,5.66,6.79c.55.66,2.59-.25,3.92-1.71ZM424.24,305.78l-5.11-5.99-4.78,5,9.89.99ZM393.25,347.4c10.72-2.63,19.89-7.99,23.41-18.52-.84-.31-1.87-.47-2.25-.2l-1.66,1.18c-4.48-7.13-5.79-17.35-5.14-25.98-9.08,6.48-18.05,10.78-28.25,10.21,1.57,15.26-6.27,16.47-6.32,17.6-.3,6.43,7.83,13.68,15.25,15.69,1.52-1.14,3.53-1.02,4.95.03ZM413.86,339.11c-5.62,5.57-12.38,10.17-20.75,10.62,1.34,3.05,2.44,5.85,2.08,7.56-.31,1.48-2.87,3.73-4.77,4.39-2.19.76-5.4-2.29-5.64-4.26-.33-2.72.55-4.64,3.53-7.14-11.35-4.52-15.77-7.26-18.12-20.01-.56.19-2.23,1.84-1.88,2.39l1.8,2.86-4.1,1.91-.19,8.93.96,6.38,1.33,5.73,2.69,6.85-.2.36,2.82,2.08c.68.5.05,2.71.15,3.27l3.64,2.71c.69.51-.46,3.4-.93,3.81l-4.83-5.34c-1.13-1.25-2.13-3.83-2.25-5.3l-.08-.61c-7.14-10.36-5.38-22.06-4.05-33.7-6.76,10.04-5.61,23-1.84,33.12l1.85,4.94c3,8.04,8.55,12.28,8.16,19.19-1.24.05-3.36-.59-3.27-1.36l.46-3.71c-3.98-5.61-8.17-12.02-9.81-19.16-.5-2.17-1.24-4.42-2.13-6.42.32-3.74.17-8.07-1.61-10.98,3.13-4.05.73-7.51,4.14-13.29l-16.19,5.82c-10.26,3.69-16.57,11.13-19.86,21.16l-5.46,16.62-4.52,10.53c5.94.73,10.58,2.45,15.79,5.08,1.83.92,3.4,1.56,4.6,3.52-7.3-2.62-14-5.22-21.63-6.05-.2,1.76-.41,2.99.09,2.97l3.73-.13,1.42,7.07.98.31,1.5-7.31,2.02,3.72c.51.94-.96,2.66-1.92,4.04,2.12.24,5.15,1.08,6.67,2.14.54.38.84,2.57.21,2.59-.69.02-2.27-.16-2.63-.69l-1.33-1.99c-.06-.08-1.21,1.04-1.98,1.74l-3.56-3.5-.43.05-2.21,1.36c-.57.35-5.22-3.22-5.86-1.31l-1.16,3.45,8.13,1.38c6.28,1.07,12.31,3.71,17.27,7.33l3.11-7.29c-2.28-7.94-1.06-16.79,3.63-24.51l-1.31-12.99,1.53-.09,1.33,10.06,4.62-6.93.98.71-6.32,14.4c-4.86,11.08-2.23,23.69,6.82,31.18l-2.5,1.43c-.43.25.32,1.93.36,2.46l.24,3.16c.04.46-1.89.54-1.77.41l-6.71-16.68-3.62,9.64-5.32,14.73,16.7-4.58c.91-.25,2.24-2.78,3.09-2.64l3.62.62-2.37-1.57c-.42-.28,1.24-1.48,1.75-1.4l1.51.25,5.53-1.23c.32-.85,1.02-2.61,1.67-2.68l2.66-.29,3.88-2.64c.78-.53,1.79.51,3.72,1.61,3.93-9.42.9-21.32,3.56-29.76l7.2-22.84c.36-1.15,2.84-3.29,3.86-2.76l3.35,1.72,3.09-1.73c.72-.41,3.1.87,3.35,1.68l6.5,20.83c.86.46,2.98,1.46,2.61,2.05l-1.44,2.31,2.09,23.4c.09,1.47,1.69,4.65,2.56,4.82,2-.97,3.88-2.11,4.65-1.39l2.98,2.77c.64.41,2.69-.13,3.22.47l2.32,2.65c.57.03,2.22-.16,2.61.31l1.52,1.85,2.7-1.14c.85-.36,2.73,4.15,7.96,5.16l16.05,3.1-4.65-18.16-3.54-13.6-8.3,27.55c-4.29-3.94-.78-7.64-.11-11.85-2.4,2.05-5.22,4.22-9.06,3.46,2.9-2.17,7.84-4.15,9.72-7.37,2.9-4.97,4.44-10.91,5-16.76s-2.76-12.53-3.84-16.75l6.14-9.98-2.02,9.44,3.86,17.27c6.48-3.01,13.17-6.16,19.98-7.33l4.16-.71c.82-.14-.56-2.92-.8-3.8l-8.04-28.95,4.41,5.75,3.91,16.5,1.19-.76-5.92-24.83c-.65-2.72-3.99-7.03-7.02-6.38-7.15,6.19-12.72,13.69-17.24,21.85-5.87,10.6-11.99,20.58-16.01,32.03l-6.58,18.76-1.51-.9,5.21-15.71c3.07-9.26,7.19-17.5,11.56-26.14,6.27-12.42,13.35-23.73,23.18-32.7l-4.05-1.07c-.49-.13-1.82,4.48-2.49,4l-1.72-1.22-1.9-1.6c-.41-.34,2.01-1.08,2.41-1.44l1.78-1.62c.37-.33-.8-1.11-1.29-1l-1.95.42c-7.05,7.78-11.77,16.45-17.61,25.43,2.01-7.73,7.08-13.49,11.04-20.07,1.82-3.02,3.73-5.58,6.39-6.75l-17.82-4.36c-.12,2.54-.48,3.69-1.5,6.14l4.34,1.3c-5.08,1.94-7.2,4.47-7.4,8.42l2.23-2.46c.31-.35,1.26,1.61.9,1.91l-1.64,1.34c-1.02.23-2.62.63-2.49,1.3l.53,2.65c-2.84,1.54-4.26,4.65-4.61,7.45-1.43,1.59-3.12,3.71-4.01,5.13-4.91,3.84-1.16,9.93-7.86,7.54l4.41-8.47,3.38-3.55,2.55-4.95,4.32-7.71c.49-2.27,1.06-4.35,3.03-6.53l1.41-9.79c.06-.43-.41-1.66-.77-1.44l-1.46.88c-2.44,10.62-6.64,20.77-13.3,29.5l-3.87,4.37-6.07,5.42-1.21-1.58,11.15-11.91c5.31-7.75,12.89-22.83,10.09-28.65-.32-.66-3.3-.35-3.34.38l-.12,2.32-2.45,5.02.78.31,3.05.57-2.69,5.29-3.96,3.77-4.54,4.51-3.09-.13c-.85-.04-1.5,1.73-2.65,2.83s-5.03.22-6.23-.55l2.17-2.28c.41-.43,1.93,1.01,2.24,1.24l6.1-3.77c3.58-2.21,8.04-6.97,8.8-10.06l-1.12-.78ZM390.85,358.39c1.14-.54,2.33-3.51,1.73-4.27l-2.32-2.94c-1.65,2.05-2.72,3.55-2.85,4.71-.11.99,2.54,2.92,3.44,2.5ZM387.65,378.23c.4-3.93.44-8.28-1.93-12.47-3.26,5.9-5.26,11.53-5.67,17.31l4.39-9.71-.09,5.01c-.01.7,2.67.34,2.9.3l.39-.44ZM388.99,379.69l.66,7.15.54,34.98c.07,4.81,3.7,7.48,7.19,9.66l6.42,4.01c2.92-2.49,5.33-6.93,5.76-11.3-1.64-1.69-4.43-2.49-7.17-2.71-2.17-4.37-2.73-9.96-3.04-15.04-.75-12.37-3.46-23.39-6.3-35.88l7.24,19.24c-1.29-7.7-3.4-14.64-5.81-22.26-.45-.56-1.99-1.62-2.5-1.2-.38.31-1.77,1.82-1.84,2.31l-1.5,10.62c-.19-.23-.1-.12.35.42ZM369.77,424.48l-1.05-3.77c-2.45,6.67,2.14,13.18,6.67,16.69-.47-6.07,11.51-4.46,11.59-16.38l.24-36.72.21-3.18c.04-.53-1.89-.96-2.61-.87l-2.64,16.85c-.71-4-.5-7.21-.6-11.22-.51,1.83-1.55,5.23-1.6,7.01l-.3,10.37-1.76,18.12c-1.62.54-2.76.94-2.61.89.1-.03-.29-1.89-.49-2.89l-5.05,5.1ZM454.13,399.32c.6-1.46,3.72-4.11,5.07-3.47,1.18.57,2.82,2.56,4.22,4.49l2.9-7.39,5.6,3.16-.54-4.89c-2.94-.11-6.25.17-8.94,1.11l-16.42,5.73,1.89,9.13,4.04-2.61,2.18-5.27ZM475.64,405.21c-2.84-5.82-8.37-3.35-11.41-.87-1.27-.98-3.33-2.43-4.04-1.75l-3,2.86-6.8,2.19c-.61.2-2.01,1.2-1.88,1.83l.66,3.19c8.1-3.89,16.54-6.78,26.47-7.44ZM347.14,433.42l-28.42,7.55c-3.71.98-7.3,4.37-11.21,6.55,2.87-8.45,10.73-10.9,18.8-12.17l6.33-19.01c-6.73-4.44-14.32-6.86-22.58-8.12l-10.4,40.24c-2.67,10.33-2.32,24.35,6.4,23.45,8.64-.89,16.98-3.06,24.43-7.57l23.57-14.26c-4.81-4.79-6.93-10.67-6.91-16.66ZM438.63,456.87c11.16,6.65,34.85,15.3,40,10.32,2.25-2.18,3.5-11.21,2.69-16.23l-3.81-23.52-4.2-19.37c-8.57.18-15.52,2.52-22.16,6.86l5.15,19.39c6.9,1.3,13.82,2.99,15.95,10.68-6.29-3.59-12.22-6.04-19.39-7.67l-21.35-4.87c-.16,6.19-2.13,11.49-6.37,16.38l13.48,8.04ZM410.62,439.27c4.08-4.38,6.1-12.28,2.87-15.21-1.66-1.51-2.4,8.24-7.86,14.58,1.15.64,4.33,1.34,4.99.63ZM371.24,438.82c-2.62-4.09-5.39-9.73-6.99-14.16-5.05,4.94-.52,15.89,5.11,16.3.73.05,2.09-1.49,1.88-2.14ZM367.03,442.53c-5.32-3.91-7.31-8.21-7.32-15.22-.96.32-3.41,1.73-4.56,2.81-.39,5.66,1.7,12,6.96,15.06l4.91-2.65ZM424.75,430.28l-1.1-1.52c-.27-.37-1.23-.1-1.42.32l-1.2,2.67-3.12-5.62c-1.28,6.81-2,11.46-6.8,15.54l5.21,3.16c3.87-4.17,6.15-9.07,8.05-13.52l.38-1.03ZM428.01,455.97c-1.78-4.05-6-4.4-9.04-4.73l-7.47-4.84-11.54-6.72-1.9-3.72c-3.52-2.12-6.74-4.68-9.48-7.59-1.7,3.06-5.17,5.81-8.71,7.51l-.56,3.19c-.14.81-2.66,1.58-3.4,2.1l-15.26,10.66c-2.01,1.4-7,.09-8.07,4.64,23.49,12.81,52.22,13.12,75.44-.5ZM360.2,447.23c-4.72-4.95-7.08-10.49-7.69-16.86-1.29.22-3.66,2.84-3.44,4.42,1.33,9.63,7.62,16.97,11.13,12.44ZM425.65,430.9l-.04.96c-1.01,4.89-3.41,9.39-6.84,14.26l3.6,1.97c4.4-3.8,6.72-10.04,6.39-15.97l-3.1-1.22ZM321.17,507.49l-3.59,26.54c-.45,3.33-.38,7.4-2.28,9.94-3.17,4.25-2.25,7.57.35,11.54l9.6,14.67c3.32-23.57,6.93-46.57,11.54-69.96l5.82-20.3,8.49-22.91c-9.31,4.91-17.1,11.15-26.85,14.27l-11.74,3.76-5.18,32.29,9.95,8.95,3.37-20.65,3.5-22.28c1.75,3.98.68,7.24.2,10.76l-3.17,23.39ZM428.17,458.91l-11.55,6.01c-19.68,7.41-45.88,5.72-63.67-5.52-.85,1.2-1.96,3.68-1.1,4.21l3.38,2.06c20.82,12.69,46.28,13.22,67.59,1.1l6.77-2.8-1.42-5.06ZM392.78,482.4l.51-3.5c.06-.41,1.39.2,1.51.6l.7,2.48c10.75-.17,18.98-4.29,27.96-6.48l5.74-6,.53,2.08c-.05-.2,2.96.11,2.88-.65-.14-1.38-1.2-3.37-2.71-5.13-11.13,7.44-22.61,10.63-36,11.5-1.57.1-4.59,1.65-5.55,2.34-1.53-1.53-4.53-2.82-6-2.16l.29,3.43c.05.58,1.83.67,2.44.73l7.7.76ZM360.26,474.89c3.49,2.63,6.95,3.88,10.59,4.79l3.03-4.45c-6.52-.63-12.11-2.99-17.71-6.28l.72,2.67c.14.52-1.36,1.07-1.96,1.33-.45.2-.96,1.77-.46,1.76l2.57-.05c.55-.01,1.62,1.04,2.11.79.37-.19,1.86-.94,1.12-.56ZM407.99,486.6l-4.91-3.63c-7.67,1.11-15.27,1.39-22.64.69l-1.62,3.63c-.14.1-1.61-1.32-1.37-1.73l1.28-2.19-7.22-1.65c-9.96-2.27-13.67-6.49-17.04-2.85l-4.59-5.64c-.4-.49-2.82.77-2.54,1.34.21.42.87,2.12,1.24,2.33l16.52,9.11,2.18-4.74c1.38,1.67,1.67,2.9.72,5.15,18.53,6.64,38.87,5.57,56.72-3.86l9.69-5.12c.91-.48,1.63-2.84,1.05-3.58-.46-.59-2.4-.67-3.16-.34l-8.21,3.59-17.97,5.35,1.86,4.11ZM380.47,477.23l-3.97-.85c-.63-.14-2.07.59-2.55,1.04s-.97,2.37-.34,2.52l3.48.83,3.28.29c.64.06.27-2.18.1-3.83ZM352.34,486.35c-.22-3.51-2.57-6.3-6.37-8.12l-3.43,12.87c2.2,11.03,3.64,21.73,7.16,32.43,21.75,66.06,62.82,124.82,123.2,160.49l-.72-6.33-3.18-.27c-.67-.06-1.81-2.51-1.21-2.82l3.16-1.61-5.72-6.71-2.02,6.93c-3.71-4.46.01-9.23,3.12-10.19l4.35,6.13c-.08-2.86-.27-4.93-.76-6.81-48.18-31.06-92.98-86.35-112.02-140.37,16.15,34.49,35.41,66.44,62.14,93.92,15.49,15.93,30.94,30.34,49.99,42.34l-.41-10.76c-5.87-4.2-10.99-7.86-14.41-13.86l13.84,10.86.35-9.85c-14.97-6.91-31.03-20.22-40.57-33.72,12.48,12.14,25.13,22.94,40.11,30.9l.29-15.05-8.95-2.93c-15.78-7.54-30.25-17.2-41.37-31.07,12.68,9.4,24.3,18.82,38.12,26.08l11.8,4.94-1.47-11.11c-4.09-1.51-7.95-3.08-12.01-6.12l12.1,3.42-.43-8.03c-13.84-2.52-25.7-8.52-36.89-17.11-16.87-12.95-33.94-25.29-48-42.12,7.42,4.02,12.38,10.47,18.5,15.68l12.94,11.01,6.53,5.23,16.43,11.89c7.2,5.21,15.53,9.09,24.29,11.58l6.05.42-.08-10.37c-7.3-1.11-15.06-1.95-22.07-4.89-13.95-5.86-26.43-14.24-38.06-23.88-17.93-14.85-33.01-31.45-44.05-51.9-1.75-3.24-5.7-6.35-3.45-10.46,18.88,32.54,45.64,62.48,78.41,79.33,8.75,4.5,17.25,7.56,27.39,8.39-4.22-33.5-11.37-66.3-28.43-96.21-6.43,8.25-29.45,15.04-38.57,14.83l-12.83-.31c-2.91-.69-4.17-.93-7.09-1.07-11.99-.59-23.41-9.02-24.28-7.74l-.85,1.24.55.59,10.06,20.47,20.11,32.77,26.86,34.14c-13.51-10.36-22-24.27-31.41-37.64-10.5-15.87-20.02-31.65-26.78-48.96v-.49ZM414.6,739.62c22.32-1.1,42.61-7.85,61.35-18.5l-6.75-35.39c-18.56-10.14-34.23-22.87-49.05-37.91-16.54-16.79-30.74-34.68-42.66-54.8l-1.34,36.64c3.22,2.82,2.63,6.84-.19,9.95,8.07,3.55.9,10.19,7.32,13.1,2.04.92,4.02,4.45,2.85,6.03l-10.49,3.04-.65,6.49c-1.24-.88-2.57-1.82-2.58-2.63l-.02-3.7-10.73-4.44c3.24-4.09,4.88-5.32,8.07-7.86-.64-.9-1.88-5.47-.72-6.46l4.31-3.7-2.74-5.06c-.57-1.04,1.6-3.35,3.04-4.27l1.15-24.11.51-16.83c-16.34-28.97-28.64-57.84-34.14-90.77l-5.62,27.9-5.1,34.87-24.51,152.25,5.91,3.55,4.75-34.27,1.92-14,4.94-34.06,2.96-21.25c3.88-27.86,6.96-55.29,12.19-82.8.62,13.81-2.52,26.39-4.22,39.66l-3.53,27.53-9,63.81-3.07,20.08-5.46,36.21,7.75,3.18,12.22-98.7,8.94-70.53.97.63-8.09,74.5-11.03,94.82c19.89,8.72,40.11,16.28,61.81,17.92l28.72-.15ZM311.66,519.57l4.62,5.01.66-6.56-10.12-8.76-2.9,12.15,11.23,10.5.39-6.04-3.78-2.2c-.81-.47-.5-3.58-.1-4.09ZM372.19,646.38l5.68-1.62c-.9-1.2-3.41-3.34-4.06-2.5l-3.22,4.15,3.78,5.76c2.3-1.81,3.82-3.31,4.54-5.41l-4.45,2.51c-.8.45-2.67-3.03-2.28-2.88ZM371,655.46c-.53,2.1-.91,3.36-.39,3.35l1.84-.03c.35,0,.4-1.17.41-1.56l.04-4.98c-3.25-.13-5.17.99-7.67,3.99l2.53,1.71c.67.46,1.8-2.4,2-3.46,1.17-3.19,2.22.23,1.25.99ZM320.51,729.19l.22-5.46-15.14-6.75-.45,3.21c-.08.58,1.27,1.39,1.81,1.68l13.56,7.32ZM312.76,742.96c2.21-.71,2.83-.83,2.86-.95l.64-2.28,2.6,2.17,1.26-10.78-16.12-8.12-3.53,20.16,16.87,8.26,1.27-6.47-5.84-1.99ZM325.67,729.09l21.29,8.12c37.47,12.58,77.83,11.92,114.78-2.58l13.72-7.68c.73-.41.94-2.93.68-3.6-34.89,22.25-91.78,25.11-129.42,10.09l-20.19-8.06c-.75-.33-2.42-1.37-2.62-.75l-1,3.16c-.2.64,2.1,1.05,2.75,1.29ZM320.08,751.77c35.59,14.53,63.81,21.67,103.9,16.95,20.48-2.41,39.36-9.6,57.18-19.42l-3.93-21.28c-4.74,4.04-8.81,6.52-14.08,8.37l-20.81,7.31c-33.48,8.63-68.48,6.42-100.9-6.11l-18.4-7.11-2.96,21.3ZM313.39,756.39c.96.44,3.73.45,3.78-.44l.19-2.96c.05-.71-2.6-.58-3.49-.98l-13.95-6.3-.58,4.16,14.04,6.51ZM319.36,757.79l26.7,9.91c44.82,13.29,92.19,11.21,133.48-11.23.75-.31,2.49-.71,2.43-1.35l-.34-3.6c-20.64,11.81-43.93,20.3-68.56,20.43l-23.16.12c-20.26.11-39.7-6.08-58.3-13.38l-12.04-4.73-.21,3.82ZM315.76,764.46l.6-4.3-17.64-7.25c-.7,2.19.64,4.33,2.87,5.31l14.16,6.24ZM488.57,787.63l-4.42-23.87c-18.78,10.43-38.22,17.81-59.16,20.23-10.43,1.21-20.28,2.7-30.48,1.63l-27.22-2.84c-17.32-3.13-33.7-8.18-49.47-15.91l-1.94,7.08c-.96-2.8-.79-4.42-.39-6.88l-18.24-8.65-4.2,28.11c5.68,2.93,11.87,5.34,18.84,7.47l1.44-14.83-3.89,1.67c-.48.21-.43-2.42,0-2.61l6.87-2.56c.23,2.96.18,5.62-.27,8.03l-1.76,9.38,13.58,3.97,23.45,6.62c46.4,11.85,94.73,6.1,137.25-16.03ZM326.72,767.84c22.13,9.22,44.88,14.1,68.53,15.81l22.67-.82c23.27-3.06,45.16-9.93,65.36-21.26l-.37-3.21-13.25,6.69c-34.24,15.58-72.6,18.49-109.27,9.96-14.88-3.46-28.34-7.62-41.53-14.75l-.51,4.09,8.37,3.49ZM310.14,806.13l-.72.62c-2.62,3.76-2.97,8.89-.06,13.26,3.31-3.93,4.53-10.88.79-13.88ZM368.57,848.47l4.78-36.17-29.69-5.8,5.78,42.24c6.13,1.05,13.08,1.32,19.14-.28ZM441.67,848.85l6.01-41.53-30.21,5.68,4.49,35.99c6.53,1.26,13.62,1.22,19.71-.14ZM372.26,858.71l-4.19-2.25c1.83-2.05,3.12-3.74,3.49-5.43-9.5,3.03-16.54,2.47-25.61.36,2.21,6.35,7.4,3.76,11.51,6.67l-12.11-.17c8.5,5.41,18.15,5.12,26.89.83ZM443.92,860.1c.88-.26.35-2.67-.4-2.63l-2.86.15,4.34-5.59c-9.42,2.12-16.65,1.59-26.01-.58.88,4.28,4.06,4.68,7.51,6.27l-8.21.51c7.34,5.15,18.17,4.09,25.64,1.87ZM476.4,895.56c.53,2,1.15,3.92,1.53,4.24,1.13-3.75-1.71-5.51-3.8-7.62l5.68,1.3c-3.63-4.25-7.66-3.78-11.8-5.47-9.24-3.78-21.86-14.73-26.19-23.98-6.36,1.55-13.66,1.96-19.81-.59l-3.78,15.7c-.58,2.4-.98,5.94.25,7.81,3.83,5.81,14.02.51,24.73,6.75,6.36,3.7,13.03,5.9,20.37,4.16,3.8,2.86,9.11,3.32,11.38-1.02l-9.54-3.71,1.14-1.42,9.83,3.87Z"/>
      <polygon class="cls-1" points="474.74 535.58 473.38 548.1 473.48 532.5 474.55 508.57 475.11 474.96 477.13 477.11 476.59 501.43 475.69 518.08 474.74 535.58"/>
      <path class="cls-1" d="M476.1,631.08c1.18-4.43,6.19-6.36,9.55-9.42,4.18-3.82,7-8.86,11.7-11.43-5.04,9.04-12.81,14.89-21.24,20.85Z"/>
      <path class="cls-1" d="M367.77,315.49c.31.24,1.93,2.93,1.66,3.96-.32,1.24-1.32,2.65-3.1,5.3l-5.97-5.72,1.97-5.29,3.47,6.18,1.97-4.44Z"/>
      <path class="cls-1" d="M424.31,318.03c.42,1.71-2.78,5.87-4.31,5.91l-3.84-3.74c-.76-.74,1.1-3.79,1.81-3.96l6.35,1.78Z"/>
      <path class="cls-1" d="M487.54,505.16c-1.71-5.82-1.86-11.71-1.16-18.24,1.38,5.88,2.12,11.68,1.16,18.24Z"/>
      <path d="M414.6,739.62l-28.72.15c-21.7-1.64-41.92-9.2-61.81-17.92l11.03-94.82,8.09-74.5-.97-.63-8.94,70.53-12.22,98.7-7.75-3.18,5.46-36.21,3.07-20.08,9-63.81,3.53-27.53c1.7-13.28,4.84-25.85,4.22-39.66-5.23,27.52-8.31,54.94-12.19,82.8l-2.96,21.25-4.94,34.06-1.92,14-4.75,34.27-5.91-3.55,24.51-152.25,5.1-34.87,5.62-27.9c5.5,32.93,17.8,61.8,34.14,90.77l-.51,16.83-1.15,24.11c-1.44.92-3.6,3.23-3.04,4.27l2.74,5.06-4.31,3.7c-1.16,1,.08,5.56.72,6.46-3.19,2.53-4.83,3.77-8.07,7.86l10.73,4.44.02,3.7c0,.82,1.34,1.75,2.58,2.63l.65-6.49,10.49-3.04c1.17-1.58-.81-5.1-2.85-6.03-6.42-2.9.75-9.54-7.32-13.1,2.82-3.11,3.41-7.13.19-9.95l1.34-36.64c11.93,20.12,26.12,38.02,42.66,54.8,14.82,15.05,30.49,27.78,49.05,37.91l6.75,35.39c-18.74,10.65-39.03,17.4-61.35,18.5ZM413.76,697.8c1.08,3.3,5.87-6.32-2.95-12.46-.83-.73-1.69-1.47-2.07-1.05s-1.28,1.88-.8,2.17l1.8,1.07c1.03.61,2.8,1.87,3.45,2.67.82,1-.91,3.08.56,7.59ZM366.17,708.54c2.69-3.62,2.29-7.64.27-10.17-2.74,3.49-3.6,7.63-.27,10.17ZM455,720.34l-2.23-12.95c-.59-3.43,1.09-5.8-3.06-7.65.09,4,.87,6.24,1.38,10.11l1.26,9.6c.07.54,1.08,2.08,1.36,2.56.18.3,1.38-1.2,1.3-1.67ZM366.62,710.94l4.64-.64c.89-.12.8-4.26-.06-3.93-3.42,1.6-5.68,4.58-7.29,7.58-1.59,2.95-1.04,6.3,1.75,7.73l.96-10.73Z"/>
      <path d="M352.93,485.47l.85-1.24c.87-1.28,12.29,7.15,24.28,7.74,2.92.14,4.18.38,7.09,1.07l12.83.31c9.12.22,32.14-6.58,38.57-14.83,17.06,29.91,24.21,62.71,28.43,96.21-10.14-.84-18.64-3.89-27.39-8.39-32.76-16.86-59.53-46.8-78.41-79.33-2.25,4.11,1.7,7.21,3.45,10.46,11.04,20.46,26.12,37.05,44.05,51.9,11.63,9.64,24.11,18.02,38.06,23.88,7.01,2.94,14.77,3.78,22.07,4.89l.08,10.37-6.05-.42c-8.76-2.49-17.09-6.37-24.29-11.58l-16.43-11.89-6.53-5.23-12.94-11.01c-6.12-5.2-11.08-11.66-18.5-15.68,14.06,16.83,31.13,29.18,48,42.12,11.19,8.59,23.06,14.59,36.89,17.11l.43,8.03-12.1-3.42c4.06,3.04,7.92,4.61,12.01,6.12l1.47,11.11-11.8-4.94c-13.82-7.26-25.43-16.68-38.12-26.08,11.12,13.86,25.59,23.52,41.37,31.07l8.95,2.93-.29,15.05c-14.97-7.96-27.63-18.76-40.11-30.9,9.53,13.5,25.6,26.81,40.57,33.72l-.35,9.85-13.84-10.86c3.42,6,8.54,9.66,14.41,13.86l.41,10.76c-19.05-12-34.5-26.41-49.99-42.34-26.73-27.49-45.99-59.44-62.14-93.92,19.05,54.02,63.84,109.31,112.02,140.37.49,1.88.68,3.95.76,6.81l-4.35-6.13c-3.11.97-6.83,5.74-3.12,10.19l2.02-6.93,5.72,6.71-3.16,1.61c-.6.3.54,2.76,1.21,2.82l3.18.27.72,6.33c-60.39-35.67-101.45-94.43-123.2-160.49-3.52-10.7-4.96-21.4-7.16-32.43l3.43-12.87c3.8,1.83,6.15,4.61,6.37,8.12l.59-.88ZM353.49,486.05l-1.16.79c6.76,17.31,16.28,33.09,26.78,48.96,9.41,13.37,17.9,27.28,31.41,37.64l-26.86-34.14-20.11-32.77-10.06-20.47ZM399.37,506.81l9.8-2.45c-10.86.01-20.03-1.53-30.39-6.54,3.6,4.77,18.02,9.64,20.59,8.99ZM441.52,513.22c1.13-4.03,1.09-8.36-.88-12.02l-2.85,4.34c-.53.8-3.53.4-3.98-.45-1.03-1.95-3.29-5.74-4.52-6.98l3.35,10.57c1.92.53,5.1-.74,7.03-2.31l1.28,4.67c.13.49-1.05,1.72-1.54,1.6l-3-.75,3.21,7.86,1.03-5.73.86-.8ZM441.56,513.81l-.24.57,2.46,4.51,2.42-.04c-1.17,1.49-3.45,3.28-4.76,3.18s-3.43-1.84-5-3.04c-1.35-1.03-4.78,2.5-4.44,4.37.3,1.66,2.84,4.28,4.24,4.73.36-2.06.37-3.11,1.05-3.05l3.22.29.87-.52c.36-.21,1.95-.36,1.74-.02l-1.84,2.98c-.45.74.88,2.77,1.27,3.23l2.39-7.72,5.16-4.12-8.53-5.35ZM456.56,560.38l-2.86-3.48c-1.43-1.74-2.33-4.74-3.47-8.05l-1.04,7.96-.04,7.89,2.33-5.58c.36-.87,2.82,1.03,5.07,1.27ZM416.31,629.39l-.88-1.64c-.21-.39.59-1.23,1.02-1.16l2.67.44-3.92-7.92c-.18-.37-2.38-.18-2.24.21l.77,2.15c-1.33,9.05,2.42,12.92,3.82,10.91.26-.37.73-1.38.38-1.67l-1.63-1.33ZM447.8,649.21c-3.69.43-4.83,3.69-4.76,6.47.04,1.79,1.56,4.02,3.88,5.79,1.14-4.57,1.38-7.53.89-12.26ZM456.97,664.67c1.41-2.74,2.91-6.2-1.58-8.43-1.01,2.44-2.26,6.73-2.17,8.91.03.65,2.82,2.42,3.01,1.81l.73-2.29Z"/>
      <path d="M370.8,365.32l-2.69-6.85-1.33-5.73-.96-6.38.19-8.93,4.1-1.91-1.8-2.86c-.35-.55,1.32-2.2,1.88-2.39,2.34,12.75,6.76,15.48,18.12,20.01-2.98,2.5-3.87,4.42-3.53,7.14.24,1.97,3.45,5.01,5.64,4.26,1.9-.66,4.46-2.91,4.77-4.39.36-1.71-.74-4.51-2.08-7.56,8.38-.45,15.14-5.05,20.75-10.62l1.13-.95,2.45-5.02.12-2.32c.04-.73,3.03-1.03,3.34-.38,2.8,5.82-4.78,20.91-10.09,28.65l-11.15,11.91,1.21,1.58,6.07-5.42,3.87-4.37c6.66-8.73,10.86-18.89,13.3-29.5l1.46-.88c.36-.22.83,1.01.77,1.44l-1.41,9.79c-1.97,2.17-2.54,4.25-3.03,6.53l-4.32,7.71-2.55,4.95-3.38,3.55-4.41,8.47c6.7,2.38,2.95-3.71,7.86-7.54.89-1.42,2.59-3.53,4.01-5.13.35-2.8,1.77-5.91,4.61-7.45l-.53-2.65c-.13-.66,1.47-1.07,2.49-1.3l1.64-1.34c.36-.3-.58-2.26-.9-1.91l-2.23,2.46c.19-3.95,2.32-6.48,7.4-8.42l-4.34-1.3c1.02-2.45,1.39-3.6,1.5-6.14l17.82,4.36c-2.66,1.17-4.57,3.72-6.39,6.75-3.96,6.58-9.03,12.34-11.04,20.07,5.84-8.97,10.57-17.65,17.61-25.43l1.95-.42c.49-.11,1.66.67,1.29,1l-1.78,1.62c-.4.36-2.81,1.1-2.41,1.44l1.9,1.6,1.72,1.22c.67.48,2-4.13,2.49-4l4.05,1.07c-9.82,8.97-16.91,20.29-23.18,32.7-4.37,8.64-8.48,16.89-11.56,26.14l-5.21,15.71,1.51.9,6.58-18.76c4.01-11.45,10.13-21.43,16.01-32.03,4.52-8.15,10.08-15.66,17.24-21.85,3.03-.65,6.37,3.66,7.02,6.38l5.92,24.83-1.19.76-3.91-16.5-4.41-5.75,8.04,28.95c.24.88,1.62,3.66.8,3.8l-4.16.71c-6.81,1.17-13.5,4.32-19.98,7.33l-3.86-17.27,2.02-9.44-6.14,9.98c1.08,4.22,4.39,11.01,3.84,16.75s-2.1,11.79-5,16.76c-1.88,3.22-6.82,5.2-9.72,7.37,3.84.76,6.66-1.41,9.06-3.46-.67,4.21-4.18,7.92.11,11.85l8.3-27.55,3.54,13.6,4.65,18.16-16.05-3.1c-5.24-1.01-7.12-5.52-7.96-5.16l-2.7,1.14-1.52-1.85c-.39-.48-2.04-.28-2.61-.31l-2.32-2.65c-.52-.6-2.58-.06-3.22-.47l-2.98-2.77c-.77-.72-2.65.42-4.65,1.39-.87-.17-2.47-3.35-2.56-4.82l-2.09-23.4,1.44-2.31c.37-.59-1.75-1.59-2.61-2.05l-6.5-20.83c-.25-.81-2.62-2.09-3.35-1.68l-3.09,1.73-3.35-1.72c-1.02-.53-3.49,1.61-3.86,2.76l-7.2,22.84c-2.66,8.44.38,20.34-3.56,29.76-1.93-1.1-2.95-2.14-3.72-1.61l-3.88,2.64-2.66.29c-.65.07-1.35,1.83-1.67,2.68l-5.53,1.23-1.51-.25c-.52-.09-2.18,1.12-1.75,1.4l2.37,1.57-3.62-.62c-.86-.15-2.18,2.39-3.09,2.64l-16.7,4.58,5.32-14.73,3.62-9.64,6.71,16.68c-.12.13,1.81.05,1.77-.41l-.24-3.16c-.04-.52-.79-2.21-.36-2.46l2.5-1.43c-9.05-7.49-11.69-20.1-6.82-31.18l6.32-14.4-.98-.71-4.62,6.93-1.33-10.06-1.53.09,1.31,12.99c-4.69,7.71-5.91,16.56-3.63,24.51l-3.11,7.29c-4.96-3.62-10.98-6.26-17.27-7.33l-8.13-1.38,1.16-3.45c.64-1.9,5.3,1.66,5.86,1.31l2.21-1.36.47-1.1-1.42-7.07-3.73.13c-.51.02-.3-1.21-.09-2.97,7.63.83,14.33,3.43,21.63,6.05-1.21-1.95-2.77-2.6-4.6-3.52-5.21-2.63-9.85-4.35-15.79-5.08l4.52-10.53,5.46-16.62c3.29-10.02,9.6-17.47,19.86-21.16l16.19-5.82c-3.41,5.78-1,9.23-4.14,13.29,1.77,2.91,1.92,7.24,1.61,10.98.89,2,1.63,4.25,2.13,6.42,1.64,7.14,5.83,13.56,9.81,19.16l-.46,3.71c-.09.76,2.03,1.41,3.27,1.36.4-6.91-5.15-11.15-8.16-19.19l-1.85-4.94c-3.78-10.12-4.92-23.08,1.84-33.12-1.33,11.64-3.09,23.34,4.05,33.7l1.68-.97ZM415.77,338.47l-.79,1.42c-.76,3.09-5.22,7.85-8.8,10.06l-6.1,3.77c-.31-.24-1.84-1.67-2.24-1.24l-2.17,2.28c1.19.76,5.05,1.69,6.23.55s1.8-2.87,2.65-2.83l3.09.13,4.54-4.51,3.96-3.77,2.69-5.29-3.05-.57ZM384.06,353.68l-6.75-4.88c-.84-.61-2.79-.92-3.36-.26s.22,2.85,1.08,3c6.06,1.06,6.1,6.08,9.04,2.14ZM370.6,365.69l-1.4,1.22c.11,1.47,1.11,4.05,2.25,5.3l4.83,5.34c.47-.4,1.62-3.29.93-3.81l-3.64-2.71c-.1-.56.53-2.77-.15-3.27l-2.82-2.08ZM415.39,389.17l1.08.79,8.82-16.6-1.42.02-8.47,15.79ZM318.95,402.56l3.56,3.5c.76-.7,1.92-1.83,1.98-1.74l1.33,1.99c.36.53,1.94.72,2.63.69.63-.02.33-2.21-.21-2.59-1.52-1.07-4.55-1.91-6.67-2.14.96-1.38,2.44-3.1,1.92-4.04l-2.02-3.72-1.5,7.31c-.05.23-.51.45-1.01.74Z"/>
      <path d="M488.57,787.63c-42.52,22.13-90.85,27.88-137.25,16.03l-23.45-6.62-13.58-3.97,1.76-9.38c.45-2.41.5-5.07.27-8.03l-6.87,2.56c-.44.19-.49,2.81,0,2.61l3.89-1.67-1.44,14.83c-6.97-2.13-13.16-4.54-18.84-7.47l4.2-28.11,18.24,8.65c-.39,2.47-.57,4.09.39,6.88l1.94-7.08c15.77,7.73,32.16,12.79,49.47,15.91l27.22,2.84c10.2,1.06,20.05-.43,30.48-1.63,20.94-2.42,40.38-9.8,59.16-20.23l4.42,23.87ZM334.1,784.42l-5.94-2.02c1.94-.55,4.12-1.14,3.76-1.76l-1.66-2.82c-.37-.63-2.36,1.21-2.67,1.98-.7,1.74-.65,4.75.2,5.96l6.29-1.35ZM340.47,793.05l16.38,5.07,31.14,4.74,13.97.37h10.18c25.54-3.23,50.67-9.07,73.48-22.53-15.06,5.67-29.21,12-44.94,16.02l-34.22,4.89-15.48-.29-10.62-.82c-18.95-1.46-36.18-7.52-54.61-13.83,3.6,4.4,9.28,4.69,14.73,6.37Z"/>
      <path d="M320.08,751.77l2.96-21.3,18.4,7.11c32.41,12.53,67.41,14.74,100.9,6.11l20.81-7.31c5.27-1.85,9.34-4.33,14.08-8.37l3.93,21.28c-17.81,9.81-36.7,17.01-57.18,19.42-40.09,4.72-68.31-2.42-103.9-16.95ZM445.66,759.49l2.22-3.93c.19-.3-1.87-1.11-2.15-.55l-1.53,3c-.74-2.99-1.62-5.83-3.88-6.64-1.63,3.13-1.86,5.15-2.04,7.98-1.91,1.27-.63,2,1.09,1.5l6.28-1.37ZM373.7,758.37c-.95,3.66,1.67,5.45,3.6,5.57,1.46.09,3.62-2.24,4.03-3.63s-.37-4.35-1.48-5.65c-2.51,1.53-2.53,5.17-2.1,8.1l-4.04-4.38ZM410.35,765.85c3.2-2.24,4.85-8.47-.42-10.53l-.39,8.38c-2.24.61-1.35,1.72.81,2.14Z"/>
      <path d="M359.51,258.85c-.09-10.53,10.04-18.25,20.51-24.81-1.13,2.43-3.52,4.68-5.45,6.46-.47.81-1.22,3.92-.5,4.6l3.37,3.19-.65,2.7c-.2.82,2.11,1.47,2.96,1.5s1.36-2.84,1.81-3.57c1.36-1.34,4.5-2.82,4.83-4.52,1.08-5.61-5.45-8.94-2.55-8.97l2.26-.03c3.08,8.47,9.67,15,17.45,20.03,14.8,9.57,7.29,29.68,11.6,25.52,4.12-3.98,4.14-11.97,7.28-12.03l5.47-.11c-1.26-1.51-3.35-4.12-4.73-4.92-7.46-4.36-12.95-10.29-17.52-17.57s-13.04-10.79-17.72-18.51l-.38,5.24-2.29-1.89c-.56-.46.18-2.67.56-3.4l2.87-5.32c14.97.76,27.05,9.86,33.67,23.28,3.18,7.46,5.17,15.12,6.78,23.21l-1.86.73c-.29.11,2.55,10.02-5.05,17.81l-5.34.62c.23.33-1.56-1.67-1.68-1.16l-.87,3.75c-4.66,9.55-13.72,15.47-23.86,18.76-4.5,1.38-10.83,3.13-15.01-.04-7.38-5.61-12.9-14.4-14.73-23.67-.91-4.62-.25-9.8-.45-14.76,4.09,3.38,8.25,3.29,13.41-.17l-4.77,13.43c-.79,2.22,5.14,5.34,6.19,3.23l-4.03-3.18c4.39-9.38,7.27-19.64.49-24.23-3.42-2.31-7.26-2.73-12.08-1.18ZM395.01,260.88l9.42,3.8c-5.27-6.48-15.43-8.25-20.14-1.69l10.72-2.11ZM402.24,271.26c-5.24-2.96-10.34,6.06-14.59-2.57l-3.03,3.17c4.68,3.9,11.73,5.22,17.62-.6ZM387.91,292.78l-1.32-.87c-.3-.2-1.44,1.74-1.8,1.73l-15.34-.04c8.98,5.41,20.84.73,18.46-.83Z"/>
      <path d="M347.14,433.42c-.02,5.99,2.1,11.87,6.91,16.66l-23.57,14.26c-7.46,4.51-15.79,6.68-24.43,7.57-8.72.9-9.07-13.11-6.4-23.45l10.4-40.24c8.26,1.26,15.85,3.68,22.58,8.12l-6.33,19.01c-8.07,1.27-15.93,3.72-18.8,12.17,3.91-2.18,7.5-5.56,11.21-6.55l28.42-7.55Z"/>
      <path d="M321.17,507.49l3.17-23.39c.48-3.52,1.55-6.77-.2-10.76l-3.5,22.28-3.37,20.65-9.95-8.95,5.18-32.29,11.74-3.76c9.74-3.12,17.54-9.36,26.85-14.27l-8.49,22.91-5.82,20.3c-4.61,23.39-8.22,46.39-11.54,69.96l-9.6-14.67c-2.6-3.97-3.52-7.29-.35-11.54,1.9-2.54,1.82-6.61,2.28-9.94l3.59-26.54Z"/>
      <path d="M438.63,456.87l-13.48-8.04c4.23-4.89,6.21-10.19,6.37-16.38l21.35,4.87c7.17,1.63,13.1,4.09,19.39,7.67-2.13-7.69-9.05-9.38-15.95-10.68l-5.15-19.39c6.65-4.34,13.6-6.68,22.16-6.86l4.2,19.37,3.81,23.52c.81,5.01-.44,14.05-2.69,16.23-5.15,4.97-28.84-3.67-40-10.32Z"/>
      <path d="M428.01,455.97c-23.22,13.62-51.95,13.31-75.44.5,1.07-4.54,6.06-3.23,8.07-4.64l15.26-10.66c.74-.52,3.26-1.29,3.4-2.1l.56-3.19c3.54-1.7,7.01-4.44,8.71-7.51,2.75,2.91,5.96,5.48,9.48,7.59l1.9,3.72,11.54,6.72,7.47,4.84c3.04.34,7.25.68,9.04,4.73Z"/>
      <path d="M476.4,895.56l-9.83-3.87-1.14,1.42,9.54,3.71c-2.27,4.34-7.58,3.88-11.38,1.02-7.34,1.74-14.01-.46-20.37-4.16-10.72-6.23-20.9-.94-24.73-6.75-1.23-1.87-.83-5.41-.25-7.81l3.78-15.7c6.15,2.54,13.45,2.14,19.81.59,4.33,9.25,16.95,20.21,26.19,23.98,4.14,1.69,8.17,1.23,11.8,5.47l-5.68-1.3c2.09,2.12,4.93,3.88,3.8,7.62-.38-.32-1-2.24-1.53-4.24Z"/>
      <path d="M393.25,347.4c-1.42-1.05-3.44-1.17-4.95-.03-7.43-2.01-15.56-9.26-15.25-15.69.05-1.13,7.89-2.34,6.32-17.6,10.2.57,19.17-3.73,28.25-10.21-.65,8.62.66,18.85,5.14,25.98l1.66-1.18c.38-.27,1.41-.11,2.25.2-3.53,10.53-12.69,15.89-23.41,18.52Z"/>
      <path d="M368.57,848.47c-6.06,1.59-13.01,1.32-19.14.28l-5.78-42.24,29.69,5.8-4.78,36.17Z"/>
      <path d="M441.67,848.85c-6.09,1.36-13.18,1.4-19.71.14l-4.49-35.99,30.21-5.68-6.01,41.53Z"/>
      <path d="M326.72,767.84l-8.37-3.49.51-4.09c13.19,7.13,26.65,11.29,41.53,14.75,36.67,8.53,75.03,5.63,109.27-9.96l13.25-6.69.37,3.21c-20.19,11.33-42.09,18.2-65.36,21.26l-22.67.82c-23.65-1.71-46.4-6.59-68.53-15.81Z"/>
      <path d="M319.36,757.79l.21-3.82,12.04,4.73c18.6,7.3,38.04,13.49,58.3,13.38l23.16-.12c24.63-.13,47.92-8.62,68.56-20.43l.34,3.6c.06.64-1.68,1.04-2.43,1.35-41.29,22.44-88.65,24.52-133.48,11.23l-26.7-9.91Z"/>
      <path d="M387.25,378.66c-.24.04-2.92.4-2.9-.3l.09-5.01-4.39,9.71c.41-5.78,2.41-11.41,5.67-17.31,2.37,4.19,2.32,8.54,1.93,12.47l1,1.05,1.5-10.62c.07-.49,1.46-2,1.84-2.31.51-.42,2.05.64,2.5,1.2,2.41,7.62,4.52,14.57,5.81,22.26l-7.24-19.24c2.84,12.49,5.56,23.51,6.3,35.88.31,5.08.87,10.67,3.04,15.04,2.73.22,5.53,1.02,7.17,2.71-.43,4.37-2.84,8.81-5.76,11.3l-6.42-4.01c-3.49-2.18-7.11-4.85-7.19-9.66l-.54-34.98-.66-7.15-1.74-1.03ZM395.27,397.1l.84-1.74-2.18-12.32c-.3-1.69-2.31-4.02-3.64-4.13.53,1.09,2.03,3.42,2.28,4.67l2.7,13.52Z"/>
      <path d="M325.67,729.09c-.65-.25-2.95-.65-2.75-1.29l1-3.16c.2-.62,1.87.41,2.62.75l20.19,8.06c37.65,15.02,94.53,12.16,129.42-10.09.26.67.04,3.19-.68,3.6l-13.72,7.68c-36.95,14.51-77.31,15.17-114.78,2.58l-21.29-8.12Z"/>
      <path d="M407.99,486.6l-1.86-4.11,17.97-5.35,8.21-3.59c.76-.33,2.7-.26,3.16.34.58.74-.15,3.1-1.05,3.58l-9.69,5.12c-17.86,9.43-38.19,10.5-56.72,3.86.94-2.25.66-3.48-.72-5.15l-2.18,4.74-16.52-9.11c-.37-.2-1.03-1.9-1.24-2.33-.28-.56,2.14-1.82,2.54-1.34l4.59,5.64c3.36-3.65,7.08.57,17.04,2.85l7.22,1.65-1.28,2.19c-.24.41,1.23,1.82,1.37,1.73l1.62-3.63c7.37.69,14.96.41,22.64-.69l4.91,3.63Z"/>
      <path d="M369.77,424.48l5.05-5.1c.2,1,.59,2.86.49,2.89-.15.05.99-.35,2.61-.89l1.76-18.12.3-10.37c.05-1.78,1.08-5.18,1.6-7.01.1,4.01-.11,7.22.6,11.22l2.64-16.85c.72-.09,2.64.34,2.61.87l-.21,3.18-.24,36.72c-.08,11.92-12.06,10.31-11.59,16.38-4.52-3.51-9.11-10.02-6.67-16.69l1.05,3.77Z"/>
      <path d="M428.17,458.91l1.42,5.06-6.77,2.8c-21.32,12.12-46.78,11.59-67.59-1.1l-3.38-2.06c-.86-.53.25-3.01,1.1-4.21,17.8,11.24,43.99,12.93,63.67,5.52l11.55-6.01Z"/>
      <path d="M312.76,742.96l5.84,1.99-1.27,6.47-16.87-8.26,3.53-20.16,16.12,8.12-1.26,10.78-2.6-2.17-.64,2.28c-.03.12-.65.24-2.86.95Z"/>
      <path d="M392.78,482.4l-7.7-.76c-.6-.06-2.39-.15-2.44-.73l-.29-3.43c1.47-.66,4.47.64,6,2.16.96-.69,3.98-2.24,5.55-2.34,13.39-.87,24.87-4.06,36-11.5,1.51,1.76,2.57,3.75,2.71,5.13.08.75-2.94.44-2.88.65l-.53-2.08-5.74,6c-8.98,2.19-17.21,6.31-27.96,6.48l-.7-2.48c-.11-.4-1.45-1.02-1.51-.6l-.51,3.5Z"/>
      <path d="M443.92,860.1c-7.46,2.21-18.3,3.28-25.64-1.87l8.21-.51c-3.45-1.58-6.63-1.99-7.51-6.27,9.36,2.17,16.59,2.69,26.01.58l-4.34,5.59,2.86-.15c.75-.04,1.29,2.37.4,2.63Z"/>
      <path d="M372.26,858.71c-8.74,4.29-18.39,4.58-26.89-.83l12.11.17c-4.12-2.91-9.3-.32-11.51-6.67,9.07,2.1,16.11,2.66,25.61-.36-.37,1.69-1.66,3.39-3.49,5.43l4.19,2.25Z"/>
      <path d="M311.66,519.57c-.39.51-.7,3.62.1,4.09l3.78,2.2-.39,6.04-11.23-10.5,2.9-12.15,10.12,8.76-.66,6.56-4.62-5.01Z"/>
      <path d="M454.13,399.32l-2.18,5.27-4.04,2.61-1.89-9.13,16.42-5.73c2.69-.94,6-1.22,8.94-1.11l.54,4.89-5.6-3.16-2.9,7.39c-1.4-1.94-3.03-3.93-4.22-4.49-1.35-.65-4.47,2.01-5.07,3.47Z"/>
      <path d="M475.64,405.21c-9.93.66-18.37,3.55-26.47,7.44l-.66-3.19c-.13-.63,1.27-1.63,1.88-1.83l6.8-2.19,3-2.86c.71-.68,2.78.78,4.04,1.75,3.04-2.48,8.57-4.95,11.41.87Z"/>
      <path d="M424.37,431.3c-1.91,4.45-4.19,9.35-8.05,13.52l-5.21-3.16c4.8-4.08,5.52-8.73,6.8-15.54l3.12,5.62,1.2-2.67c.19-.42,1.15-.69,1.42-.32l1.1,1.52.9.62,3.1,1.22c.33,5.93-1.99,12.18-6.39,15.97l-3.6-1.97c3.44-4.87,5.83-9.37,6.84-14.26l-1.24-.56Z"/>
      <path d="M367.03,442.53l-4.91,2.65c-5.26-3.05-7.35-9.4-6.96-15.06,1.14-1.09,3.59-2.5,4.56-2.81,0,7.01,1.99,11.32,7.32,15.22Z"/>
      <path d="M313.39,756.39l-14.04-6.51.58-4.16,13.95,6.3c.89.4,3.54.27,3.49.98l-.19,2.96c-.06.89-2.82.88-3.78.44Z"/>
      <path d="M360.2,447.23c-3.51,4.54-9.8-2.8-11.13-12.44-.22-1.58,2.15-4.2,3.44-4.42.62,6.37,2.97,11.91,7.69,16.86Z"/>
      <path d="M315.76,764.46l-14.16-6.24c-2.23-.98-3.58-3.12-2.87-5.31l17.64,7.25-.6,4.3Z"/>
      <path d="M320.51,729.19l-13.56-7.32c-.54-.29-1.9-1.1-1.81-1.68l.45-3.21,15.14,6.75-.22,5.46Z"/>
      <path d="M360.26,474.89c.74-.37-.75.37-1.12.56-.49.25-1.55-.8-2.11-.79l-2.57.05c-.5.01.01-1.57.46-1.76.6-.26,2.1-.81,1.96-1.33l-.72-2.67c5.6,3.29,11.19,5.65,17.71,6.28l-3.03,4.45c-3.64-.91-7.1-2.17-10.59-4.79Z"/>
      <path d="M371.24,438.82c.21.65-1.15,2.19-1.88,2.14-5.63-.41-10.16-11.36-5.11-16.3,1.61,4.43,4.37,10.07,6.99,14.16Z"/>
      <path d="M410.62,439.27c-.66.71-3.84.01-4.99-.63,5.45-6.34,6.2-16.08,7.86-14.58,3.22,2.93,1.21,10.83-2.87,15.21Z"/>
      <path d="M372.19,646.38c-.39-.15,1.49,3.33,2.28,2.88l4.45-2.51c-.72,2.1-2.25,3.61-4.54,5.41l-3.78-5.76,3.22-4.15c.65-.84,3.16,1.3,4.06,2.5l-5.68,1.62Z"/>
      <polygon points="424.24 305.78 414.34 304.8 419.12 299.8 424.24 305.78"/>
      <path d="M371,655.46c.97-.76-.08-4.18-1.25-.99-.21,1.06-1.33,3.92-2,3.46l-2.53-1.71c2.5-3,4.42-4.12,7.67-3.99l-.04,4.98c0,.38-.06,1.55-.41,1.56l-1.84.03c-.51,0-.14-1.24.39-3.35Z"/>
      <path d="M390.85,358.39c-.89.42-3.55-1.51-3.44-2.5.13-1.16,1.2-2.66,2.85-4.71l2.32,2.94c.6.76-.59,3.73-1.73,4.27Z"/>
      <path d="M380.47,477.23c.17,1.65.53,3.89-.1,3.83l-3.28-.29-3.48-.83c-.63-.15-.14-2.07.34-2.52s1.92-1.18,2.55-1.04l3.97.85Z"/>
      <path d="M377.98,231.9l-9.36,5.64c-5.16,3.11-8.24,7.14-10.71,12.62,1.5-15.15,12.82-26.94,28.08-28.05-1.75,4.02-4.48,7.65-8.02,9.79Z"/>
      <path d="M373.09,270.28c-3.87-3.89-7.86-6.47-12.81-2.54l-.31-6.64c3.14-1.43,6.94-1.35,9.84.39,2.31,1.39,4.12,4.89,3.28,8.8Z"/>
      <path d="M422.69,265.54c-1.32,1.46-3.37,2.37-3.92,1.71l-5.66-6.79,9.58,5.08Z"/>
      <path class="cls-1" d="M455,720.34c.08.47-1.12,1.97-1.3,1.67-.28-.47-1.29-2.02-1.36-2.56l-1.26-9.6c-.51-3.87-1.29-6.11-1.38-10.11,4.15,1.84,2.47,4.22,3.06,7.65l2.23,12.95Z"/>
      <path class="cls-1" d="M366.62,710.94l-.96,10.73c-2.79-1.43-3.34-4.78-1.75-7.73,1.62-3,3.88-5.98,7.29-7.58.86-.33.94,3.81.06,3.93l-4.64.64Z"/>
      <path class="cls-1" d="M413.76,697.8c-1.47-4.52.26-6.59-.56-7.59-.66-.8-2.42-2.06-3.45-2.67l-1.8-1.07c-.49-.29.41-1.75.8-2.17s1.24.32,2.07,1.05c8.81,6.14,4.03,15.76,2.95,12.46Z"/>
      <path class="cls-1" d="M366.17,708.54c-3.33-2.54-2.47-6.68.27-10.17,2.02,2.54,2.42,6.55-.27,10.17Z"/>
      <path class="cls-1" d="M440.66,514.02l-1.03,5.73-3.21-7.86,3,.75c.48.12,1.67-1.11,1.54-1.6l-1.28-4.67c-1.93,1.57-5.11,2.84-7.03,2.31l-3.35-10.57c1.23,1.24,3.48,5.03,4.52,6.98.45.85,3.46,1.25,3.98.45l2.85-4.34c1.97,3.66,2.01,7.99.88,12.02l.04.59,8.53,5.35-5.16,4.12-2.39,7.72c-.38-.46-1.72-2.49-1.27-3.23l1.84-2.98c.21-.34-1.37-.2-1.74.02l-.87.52-3.22-.29c-.68-.06-.69.99-1.05,3.05-1.4-.45-3.94-3.06-4.24-4.73-.34-1.87,3.09-5.4,4.44-4.37,1.57,1.2,3.69,2.94,5,3.04s3.6-1.69,4.76-3.18l-2.42.04-2.46-4.51-.66-.35Z"/>
      <path class="cls-1" d="M399.37,506.81c-2.57.64-16.99-4.22-20.59-8.99,10.35,5.01,19.53,6.56,30.39,6.54l-9.8,2.45Z"/>
      <path class="cls-1" d="M456.56,560.38c-2.25-.24-4.71-2.14-5.07-1.27l-2.33,5.58.04-7.89,1.04-7.96c1.14,3.31,2.04,6.31,3.47,8.05l2.86,3.48Z"/>
      <path class="cls-1" d="M447.8,649.21c.5,4.73.26,7.69-.89,12.26-2.32-1.77-3.84-4-3.88-5.79-.06-2.77,1.08-6.03,4.76-6.47Z"/>
      <path class="cls-1" d="M416.31,629.39l1.63,1.33c.35.28-.13,1.3-.38,1.67-1.4,2-5.15-1.86-3.82-10.91l-.77-2.15c-.14-.39,2.06-.58,2.24-.21l3.92,7.92-2.67-.44c-.43-.07-1.23.77-1.02,1.16l.88,1.64Z"/>
      <path class="cls-1" d="M456.97,664.67l-.73,2.29c-.2.61-2.99-1.16-3.01-1.81-.09-2.18,1.15-6.47,2.17-8.91,4.49,2.23,2.99,5.69,1.58,8.43Z"/>
      <path class="cls-1" d="M384.06,353.68c-2.94,3.94-2.98-1.08-9.04-2.14-.86-.15-1.65-2.34-1.08-3s2.52-.35,3.36.26l6.75,4.88Z"/>
      <polygon class="cls-1" points="415.39 389.17 423.86 373.37 425.28 373.36 416.46 389.96 415.39 389.17"/>
      <path class="cls-1" d="M340.47,793.05c-5.44-1.68-11.12-1.97-14.73-6.37,18.43,6.3,35.67,12.36,54.61,13.83l10.62.82,15.48.29,34.22-4.89c15.74-4.02,29.89-10.36,44.94-16.02-22.81,13.45-47.93,19.3-73.48,22.52h-10.18s-13.97-.37-13.97-.37l-31.14-4.74-16.38-5.07Z"/>
      <path class="cls-1" d="M334.1,784.42l-6.29,1.35c-.86-1.21-.91-4.22-.2-5.96.31-.77,2.3-2.61,2.67-1.98l1.66,2.82c.36.61-1.83,1.21-3.76,1.76l5.94,2.02Z"/>
      <path class="cls-1" d="M445.66,759.49l-6.28,1.37c-1.72.5-3-.22-1.09-1.5.18-2.83.41-4.85,2.04-7.98,2.26.8,3.13,3.64,3.88,6.64l1.53-3c.29-.56,2.34.25,2.15.55l-2.22,3.93Z"/>
      <path class="cls-1" d="M373.7,758.37l4.04,4.38c-.43-2.93-.41-6.56,2.1-8.1,1.12,1.3,1.87,4.31,1.48,5.65s-2.57,3.72-4.03,3.63c-1.93-.12-4.55-1.9-3.6-5.57Z"/>
      <path class="cls-1" d="M410.35,765.85c-2.15-.42-3.05-1.53-.81-2.14l.39-8.38c5.27,2.06,3.62,8.28.42,10.53Z"/>
      <path class="cls-1" d="M402.24,271.26c-5.89,5.82-12.94,4.5-17.62.6l3.03-3.17c4.25,8.63,9.35-.39,14.59,2.57Z"/>
      <path class="cls-1" d="M395.01,260.88l-10.72,2.11c4.71-6.56,14.87-4.79,20.14,1.69l-9.42-3.8Z"/>
      <path class="cls-1" d="M387.91,292.78c2.38,1.57-9.48,6.24-18.46.83l15.34.04c.36,0,1.5-1.93,1.8-1.73l1.32.87Z"/>
      <path class="cls-1" d="M395.27,397.1l-2.7-13.52c-.25-1.25-1.75-3.58-2.28-4.67,1.33.11,3.34,2.44,3.64,4.13l2.18,12.32-.84,1.74Z"/>
    </g>
    <g>
      <path class="cls-1" d="M124.71,529.93c1.08-3.36.91-6.37-1.03-9.54l3.17,2.55,7.07-5.37.22,4.13c-4.75,1.08-7.54,4.23-9.42,8.23Z"/>
      <path class="cls-1" d="M123.68,520.39l-4.44,3.04-2.87,9.35c3.98.44,7.52-.3,8.35-2.85,10.04,1.28,19.18-4.49,28.18-9.95,4.28-2.59,7.53-6.15,12.75-7.15-13.8,12.39-32.42,22.18-50.23,23.6l-.07,4.03c2.23-.09,4.5,1.1,5.34,3.27l-6.18-.23-3.13,15.38c10.66-.16,17.33-8.17,26.3-10.95-7.39,6.77-16.98,10.66-26.81,13.67l-3.7,17.96c16.43-8.3,31.42-17.51,43.71-30.63l31.58-33.72c-10.76,18.2-25.31,32.29-40.79,45.47-10.59,9.02-22.2,15.56-35.02,21.31l-2.44,9.87c17.6-5.32,28.51-16.61,41.94-27.72-9.94,14.3-26.11,25.19-42.39,31.24l-.89,14.03,4.46.11-4.86,2.18-1.24,18.13c9-6.05,16.36-12.98,23.53-21.03l22.37-25.1c-5.74,10.78-13.87,18.86-21.56,27.82-7.09,8.26-14.78,15.27-24.47,21.22l-.87,20.51,21.47-24.39,18.97-24.22c22.45-30.78,40.85-63.35,58.13-97.54l-21.86,5.22c-4.92,1.17-9.5.82-13.41-3.05-12.42-12.27-10.07-25.51-16.67-30.96l-2.3-1.91c-.5-.41-2.46,1.33-3.16,1.18l-14.36-3.2c-3.19-.71-4.93-1.46-6.88-3.58l-26.88-5.87c-9.3-2.03-17.32-6.65-24.63-12.61-4.16-3.39-6.03-8.86-4.91-14.35,3.48-17.08,8.07-33.23,13.17-49.98l12.85-42.17c4.27-14.01,9.18-26.3,24.27-30.93l25.27-7.77,26.28-8.59,5.29-19.82c-2.51-3.37-1.99-7.01.41-10.37l-6.61-2.12-.08.48c-.61,7.32-2.11,14.55-4.49,22.43l6.33-1.63c-.85,5.06-4.89,3.84-8.1,4.96s-6.12,1.76-8.97-.11c-1.65-1.08-2.84-4.18-3.27-6.48l-4.22-2.67c-1.07-.68-.26-4.95.77-6,4.65-4.74,10.64-11.85,13.85-17.64-7.04-9.26-13.38-22.08-14.57-32.77-.23-2.1-1.8-6.12-1.01-8.21l2.79-7.45c-8.18,5.94-10.27,14.09-11.6,24.65-.84-.25-3.37-1.6-4.33-2.4-1.92-1.58.85-8.17-.79-8.8l-3.67-1.42c-.65-8.03,5.3-15.98,13.25-18.64l6.61-2.21.62.08.89-1.72-9.85,1.78c-3.87.7-7.5-4.13-8.03-7.03-.75-4.06,1-6.91,3.62-9.99,4.64-5.44,11.72-7.92,17.59-2.09,2.07,2.06,3.52,6.25,4.39,9.35,13.99-15.96,37.99-23.26,58.05-16.53,10.08-1.02,23.9,4.66,27.27,11.98,1.68,3.65.8,7.98-.36,11.58,6.92,9.78,3.52,19.44-3.12,29.48l.34,8.16c.13,3.22-1.8,7.1-3.26,10.54l5.14,13.43c.85,2.22-3.24,4.61-5.15,4.9l-3.68,13.93c-1.08,4.09-.92,8-6.04,9.85-3.11,1.13-6.46,1.26-11.57,1.23l1.34,9.46,22.62,8.42c1.4.52,5.01.15,6.46.56,5.07,1.4,12.1,3.58,15.6,6.74l5.09,4.6c4.45,4.02,7.62,10.91,8.9,17.12,3.65,17.62,6.33,34.73,8.84,52.48l5.78,40.92c.84,5.92,1.28,11.94-1.52,17.23l-2.41-21.51-5.91-36.35-24.64,6.63,1.51,11.06,7.24-1.92c14.11,8.32,17.88,20.24,21.78,34.98,2.73,10.31,2.88,20.76.4,31.31-.72,3.07-3.23,5.03-6.77,5.8l8.61,47.13-8.37,6.77,1.34,19.12-8.66,14.37-6.57,10.42,3.38,72.47c1.83,39.3,2.89,77.64,1.21,116.85l-1.53,35.85-23.26,8.55-5.72,36.25c1.68,3.35,1.91,12.64.08,17.05,7.42,7.73,17.16,14.99,27.76,18.57,5.64,1.9,11.47,2.22,16.13,6.62,1.43,1.6-1.86,5.81-3.61,6.86-2.2,1.33-4.61,1.51-7.16,1.15-2.15,2.61-5.21,3.69-8.58,2.98-8.1-1.7-13.46,2.77-25.28-2.67-13.66-6.27-25.2,3.23-32.86-5.29-3.05-3.4-2.5-8.58-1.16-12.67l5.15-15.71c-3.34-3.33-1.47-5.65-1.42-8.68s.36-6.17,1.75-9.13l-3.38-25.08-12.39.73-.05-6.78-22.71,1.61-5.24,31.68c2.66,2.68,2.52,5.73.56,8.49,2.28,2.72,2.3,6.04-.88,8.8l5.01,15.69c1.37,4.29.72,10.64-3.18,13.66-7.3,5.65-17.15-.41-28.15,6.66-6.65,4.28-13.35,5.01-20.64,3.45-8.87,4.62-9.86-.68-15.83-.77-3.01-.04-8.92-3.71-9.73-6.6-2.07-7.43,13.71-7.24,24.5-14.77,6.78-4.73,13.21-11.15,18.43-17.16-1.67-3.36-1.52-5.59-1.1-8.64l1.2-8.77-2.12-18.15-2.26-19.11c-8.33-2.02-17.06-5.15-25.57-9.62-.74-19.72-2.1-38.44-.18-57.97l4.87-49.55c-4.26,3.9-5.43,8.54-11.21,8.02.03-10.39,1.08-20.58.11-30.29-.59-5.91-.34-10.58-.03-16.35l1.55-28.52c.78-14.34,1.63-28.24,4.51-42.3l6.79-33.16c3.9-19.05,8.53-37.18,16.11-55.56-1.8-9.3,3.32-20.84,4.68-19.68l2.85,2.42c4.49,2.48,11.66,2.65,15.64,7.98l-18.14-6.25c-.46,4.25,2.96,6.17,6.44,7.27l11.56,3.65c1.08.34,2.52,2.23,2.56,3.62-9.04-5.74-14.82-1.91-22.16-5.78l-.67,2.67c-.13.51,1.38,1.63,1.93,1.81l18.65,6.21c2.7.9,6.42-1.64,7.56,3.85l-15.55-2.76-4.34-.51c.24.95.31,1.09.25,1.26l-2.3,5.64c-.89,2.17-1.27,5-1.14,7.16-.16-.04-2-.6-2.47-.15l-2.14,2.08-4.1,4.66ZM218.91,187.84c-2.1-5.5-7.23-8.18-11.15-8.75l-11.87-1.73c5.17,2.25,9.64,3.61,14.75,5.16l8.26,5.32ZM206.87,185.63c-7.97-6.65-18.81-8.02-28.08-5.33,1.33.44,4.46.86,6.12.7,8.34-.83,14.92,2.14,21.96,4.63ZM181.88,210.35c-13.13,3.67-23.7,5.18-37.23,5.72l.51,9.55,4.58-1.97c11.79-2.57,22.89-6.41,33.3-12.4.23-.62.95-2.24,1.28-2l1.25.92,6.19-3.53c7.75-4.42,14.82-9.08,22.17-14.36-15.46-8.94-38.88-13.46-52.14-1.86,5.37-.81,9.5-5.55,15.69-2.7-13.26,1.67-21.93,11.2-26.01,23.88-1.45-5.22,2.22-8.71,3.11-13.63-5.04,3.36-7.21,9.49-7.11,14.76,6.35-.33,12.39-.16,17.74-1.67l13.31-3.75c.65-.18,2.13-.17,2.66.05s.7,1.87.69,2.96ZM149.25,235.56c-.98.27-1.62,3.13-.9,3.52s2.94,1.05,3.79.83c6.91-1.79,15.23-3.49,22.1-5.85,20.49-7.03,53.19-22.59,61.79-42.02-.62-1.71-.84-1.64-1.5-1.1-2.58,4.34-3.46,8-7.72,9.34,2.44-4.96,7.36-8.21,5.21-14.08-2.37,4.38-1.95,9.2-6.51,11.62l4.9-12.55c-1.38-.74-2.3-1.29-2.43-.82l-.74,2.75c-3.13,7.7-9.37,15.21-17.61,18.78l11.25-11.3-1.5-1.44c-.23-.22-.25-1.64.04-1.52l2.17.89c2.35-2.32,4.43-5.95,4-9.87-2.89,5.11-5.35,8.12-9.61,11.33-8.54,6.44-16.85,12.02-26.85,16.37-2.55,1.11-5.97,4.17-8.46,5.09l-16.59,6.19,10.05-.42c-2.54.97-6.56,2.24-8.8,2.37-2.24-.65-4.24-1.18-5.93-.61l-14.19,4.78c.19,1.54,1.27,4.64,2,5.83l18.63-4.97c10.23-2.97,19.64-7.31,28.46-13.16l2.58.02c.45,0,.52.77.84,2.24-12.01,7.02-26.11,9.09-36.96,16.45-1.81,1.74-2.35.1-.51-1.75l-11.02,3.06ZM147.01,198.26l-5.85-7.38c4.16,1.48,5.14,2.82,7.83,5.36,1.46-3.68.2-6.92-2.81-9.64-1.33-1.2-4.77-2.82-6.49-2.41-2.48.59-10.84,7.03-9.04,10.55,1.52,2.97,4.1,3.86,7.09,3.77l9.27-.25ZM144.99,203.38l-.94.26c-6.06,2.93-13.04,6.45-15.35,13.53l1.52,12.92,3.52-9.27c4.92-12.96,12.56-10.31,11.25-17.45ZM235.19,215.97l-7.26-5.67c4.81-1.1,6.16,1.81,9.26,4.14,1.6-4.7-2.08-9.19-5.62-10.42-2.39,3.67-4.99,5.99-8.32,8.34l6.17,4.44c1.41,1.02,2.93,4.02,4.08,6.18,1.73-.21,3.18-5.83,1.7-7.01ZM222.49,263.25l11.81.18c-1.09-12.53-11.34-20.62-1.76-27.6l-1.29-7.02c-6.13-.8-12.2-3.26-16.74-7.28l-22.33,13.55c-1.41,3.63-3.8,7.43-6.73,10.17l.57,8.15-1.72-.37-1.2-6.7c-1.46,3.03-.76,4.71.03,8.39-8.44-2.98-3.95-12.47-12.13-14.24-1.71-.37-4.66,2-5.28,4.12-2.84,9.78,6.14,21.04,8.58,19.11l3.77-2.98,1.61,6.84c7.16,20.69,43.75,24.32,44.34,16.91l.51-6.41c-4.04-.02-5.65-1.67-6.43-4.19l5.37,1.94c1.02.37,2.96-1.02,3.26-2.39-4.89.09-9.5-.05-13.02-2.91l10.29.26c1.05.03,4.25.13,4.28-.83l.16-4.41-6.72-1.48-.44-.95-3.64-.03c-1.77-.01-1.76-4.42-.37-5.6,1.89-1.61,4.91-2.12,6.53.68l-1.13,4-.19,1.09ZM168.49,265.15c-4.54-6.91-5.73-12.49-6.11-20.56-2.83,4.05-4.23,7.56-5.2,11.59l11.31,8.97ZM163.71,265.61l-5.01-3.59c-3.81,6.09-7.89,11.67-12.61,17.31-1.38-.09-2.59-.24-2.46.24,1.13,4.09,3.29,1.08,4.67,3.82l1.21,2.4,8.41-13.95c-.21,5.52-3.43,10.95-7.46,15.79,6.68,7.57,11.48-8.83,12.88-21.79l.37-.22ZM174.35,276.93c3.26.12,3.96-4.86,1.86-6.31-1.09-.75-3.77.73-4,2.05-.21,1.17.87,4.21,2.14,4.26ZM212.7,304.13c-.67-.38-2.39-1.17-2.23-.81l1.09,2.58-2.52,1.45c-1.69-5.96-1.99-10.5-1.24-16.42-10.21-1.88-21.12-6-27.39-14.42l-5.89,4.16c-2.58,9.75-2.64,20.99-12.07,22.96,2.92,14.85,17.87,26.05,33.06,22.94,10.85-2.22,17.8-11.64,17.19-22.44ZM216.14,305.5c-2.71,13.67-10.21,23.55-23.15,25.07l-.94,5.11-1.88-3.18c-.28-.47,1.02-1.54,1.59-2.05-12.12.47-24.31-5.73-28.85-17.43l-3.67-9.45c-.96,2.25-.33,4.69.19,7.27l1.95,9.74c5.63,18.66,12.72,41.57,27.02,52.78,1.84-1.29,3.81-1.54,6.84-.94,9.99-8.88,19.87-39.3,20.36-52.44l.54-14.47ZM189.46,396.32c.72-1.2-1.06-5.11-1.9-6.02-1.89-1.52-3.26-4.01-3.11-6.9.09-1.74,1.75-3.16,4.53-4.98-2.41-3.05-6.27-5.63-9.75-7.54l-3.94-6.22c-9.58-17.15-15.31-35.92-19.15-55.05.29-1.78.11-4.3-.84-4.14-2.72,11.3.91,21.28,3.73,31.37l3.67,13.14,3.14,11.32,1.82,5.53c4.17,12.67,6.43,28.4,17.75,36.25l4.05-6.76ZM104.93,427.64c7.56,5.43,15.48,11.41,23.69,16.02,3.38-.98,5.52-.25,8.21,1.09l5.95,2.98c3.23-1.06,4.97-.8,8.54,2.75.17-7.58,3.76-11.49,9.85-13.49l26.35-8.66c-4.08-8.16-9.71-12.3-3.43-22.8-14.67-8-13.51-22.12-20.13-37.58-1.06-2.48-.98-3.43-1.68-6.1l-2.81-10.65c-1.18-4.47-1.86-9.81-3.53-14.22-.96-2.52-1.47-4.18-1.96-6.51l-1.88-8.97c-.97-4.63-.73-9.16.44-14.57l-18.46,5.62c5.76,16.35,8.15,32.6,9.32,49.9.2,2.88,2.15,6.35,3.6,8.51-2.38,4.93-1.59,10.71-1.4,16.15l.86,24.49.89,32.69-2.86-1.64-1.01,1.64c-.17.28-1.17-.97-1.57-1.45-.97-26.47-3.94-52.19-8.6-78.27-2-16.82-5.45-32.35-12.19-48.15-16.28,5.51-21.31,12.57-26.59,29.04l-8.68,27.1c13.2.55,24.68,5.45,33.96,14.29l7.43-18.29c1.93-4.74-1.42-10.86-.65-15.72,2.43,5.08,4.45,12.19,3.84,16.84l-18.03,40.5-7.48,17.47ZM196.82,401.41c4.6-4.86,8.11-10.67,10.01-17.58l5.42-19.78c1.34-4.9,3.84-9.92,3.64-15.28,1.67-3.73,2.75-8.6,2.76-13.24,2.42-3.04,2.46-7.2,2.02-10.12,2.13-4.47,1.59-14.22-1.4-18.7l-1.58,15.01c-1.51,14.29-4.96,28.46-11.63,41.3-3.73,7.19-2.32,10.53-4.06,10.06l-3.12-.83c-1.25,1.55-3.19,5.04-3.81,6.73,2.62,1.55,4.4,3.65,4.38,5.49-.01,1.43-1.84,3.7-2.68,5.06l-3.61,5.83,3.66,6.05ZM249.36,474.93l17.15-6.91c-.05-7.13-.72-14.34-2.67-22.52l-31.78,11.32c-.63.23-1.93,1.96-2.46,1.75l-2.17-.85c-2.79,1.71-5.98,2.7-9.42,3.48-9.2,2.09-17.19,6.74-26.96,6.92l31.46-10.62c2.37-1.38,4.69-1.81,7.36-2.69l25.51-8.35c3.1-1.02,5.61-1.85,8.7-2.14-3.19-12.21-8.65-23.37-16.98-31.87l-24.02,6.88-23.13,7.22c.65-2.94,2.38-4.41,4.5-5.06l13.08-4c10.24-30.07,17.09-60.31,22.15-91.66.82-5.09.9-9.77.46-14.83-.63.56-2.61,2.24-3.33,2.04l-13.21-3.7,2,8.21-2.18,3.88c-.42.75,1.78,2.94,1.54,3.73l-1.82,5.96c-.35,1.15.02,3.65.41,4.92-1.4,2.19-2.45,5.24-3.08,8.18l-1.75,8.15c-2.71,12.59-6.09,24.62-10.24,36.86-2.1,6.18-4.85,11.97-10.21,15.62l3.67,9.04c-1.77,6.98-5.23,13.01-9.39,18.07l-3.46-1.57-15.68,6.11,8.85,11.31c1.43,1.83,2.01,3.38,2.74,5.47l5.16,14.78c2.95,8.47,3.51,17.35,3.07,25.54l30.5-9.99c3.31-1.08,5.69-1.77,9.15-2.97l16.48-5.71ZM143.21,379.33c-.21-3.87-1.87-5.67-5.06-8.52l4.19-2.13-1.81-14.39-5.15-29.92c-.61-3.52-2.63-7.44-3.87-11.19l-8.07,2.12c11.52,34.26,14.86,66.35,18.52,101.66l2.56,14.22c.48-8.67.7-17.14.16-26.08l-.61-10.07-.86-15.69ZM247.38,328.45c3.64,3.83-.11,7.97-2.17,9.96l2.26,3.64c-2.28-.51-3.89-1.61-5.1-2.76l3.61-5.04-2.48-3.64c-.53-.78,2.95-2.4,2.96-3.34l.15-10.67-3.71-1.61c-1.2,11.64-3.13,21.34-5.45,32.32-5,23.57-10.57,46.15-17.93,69.49l13.42-3.59,6.72-25.5c5.81-22.06,10.78-43.79,13.28-66.62.06-.55-.13-2.69-.62-2.58l-1.76.37c.8,3.92-.5,7.42-3.2,9.58ZM246.11,390.06c-.55-5-.56-9.22.31-14.26l2.03,9,24.71-7.69-7.34-39.95c-1.14-6.22-4.9-11.47-10.01-15.57l-3.07,17.06-9.16,42.41-8.07,31.12,12.7-2.72-2.12-19.39ZM115.03,397.77l3.74-8.29c-9.54-9.16-21.42-14.12-33.89-14.13l-2.8,8.92c12.19.63,23.67,5.06,32.95,13.49ZM273.19,388.45c.67-.22,2.69-1.7,2.15-1.98l-2.21-1.16-2.15-.8c-.35-.13.87-.95,1.21-1.12l2.18-1.11c.42-.21-.18-1.56-.67-2.87l-25.01,7.22.81,8.39,9.63-2.04,14.06-4.53ZM192.4,380.53c.99,3.71.82,5.69-.93,6.91l-.9-7.37c-1.04,1.41-2.19,3.17-2.48,4.35-.25,1.02,1.55,3.53,2.56,3.92,1.88.74,4.87-1.87,5.07-3.98.21-2.24-1.59-4.04-3.31-3.83ZM126.65,446.35c-13.49-6.45-21.78-17.58-36.41-20.34,3.58-2.38,7.76-1.45,11.38-.18l11.11-26.14c-8.65-7.65-19.48-12.57-31.1-12.3l-9.75,32.43-3.85,17.16c-1.09,4.26-.37,8.9,3.28,11.75,7.18,5.62,15.09,10.57,24.15,12.6l24.49,5.5c-.75-7.72,1.55-15.08,6.7-20.48ZM192.12,426.6l1.71-1.82c2.86-3.04,4.72-6.85,4.88-11.32.12-3.33-3.15-7.17-5.57-9.88l.23-4.06c.04-.65-1.93-1.15-2.24-1.06l-1.53,2.99c-.21.41,1,1.4,1.51,1.9l-5.92,5.55c-3.68,9.87,6.39,18.28,6.94,17.69ZM268.38,440.11l-2.44-2.52c-.39-.4.57-2.1,1.02-2.93l2.69,2.34.87-5.51c1.53,2.37,1.31,5.25.1,7.24l4.23,2.14c.85.43-.24,3.14-.21,4.14l.19,5.92c.02.7,2.36,2,2.06,2.64l-1.53,3.24c3.7,9.33-1.19,15.19-.68,18.83.07.5,2.46-.31,2.63-.79,5.42-14.95,1.87-37.93-6.99-52.19-3.15-5.08-6.26-10.72-12.47-12.15l8.2,10.25c-1.52,2.29-2.03,5.08-.93,6.59,1.57-.57,3.48-1.2,3.71-1.07.5,1.71,1.65,4.43.99,5.05l-3.41,3.19-2.69-5.07c-1.29-2.42-.94-8.07-6.56-7.17,10.63,17.77,13.56,37.82,9.09,57.75,2.24-2.68,3.49-6.14,3.97-9.19l.92-5.83-.04-7.75-.98-7.08c-.44-3.17-3.01-6.87-1.73-10.06ZM257.54,417.84l-3.49-4.07c-1.16-1.36-2.82-2.35-4.25-2.2l6.4,8.69c.28.38,2.51.2,2.37-.25s-.64-1.72-1.03-2.17ZM170.38,444.18c.9,2.77,5.59,3.78,8.41,2.11l-8.48-9.24c-1.05.73-2.14,1.47-2.01,1.45s.78.62,1.21.95l2.39,1.79c.5.37-1.72,2.35-1.53,2.95ZM163.55,445.13c-2.76-2.26-5.07-3.26-6.42-2.51-1.2.68-2.59,3.52-2.9,4.96l9.31-2.45ZM132.92,448.18c-6.53-3.83-12.47,10.54-9.92,20.42,7.9,4.32-1.09-8.96,9.92-20.42ZM175.77,474c3.14.47,6.88-1.93,8.12-4.26-6.67.18-12.32.03-17.25-3.34l13.57,1.53c1.98.22,4.85-1.94,5.65-3.43l-16.61-3.73c-2.06-.46-4.5-3.88-4.57-6.03,20.78,1.59,18.43-5.69,16.93-4.69l-3.12,2.1c-7.28-4.23-16.1-5.91-23.84-1.4-2.43,1.41-6.31,2.25-9.14,2.85-3.52,4.99-4.78,11.75-4.06,17.57l4.09,2.14c7.28,8.51,23.08,15.73,28.03,8.14-3.88.03-8.38.62-11.44-3.05,6.88.13,13.39,3,18.23-2.82-6.16-.39-12.04,1.42-15.94-3.29l11.34,1.7ZM132.64,468.79c-.02-7.08,1.72-12.89,4.96-19.2-5.76-2.36-12.04,11.77-8.43,20.63.24.6,2.89,1.94,2.99,1.36l.49-2.8ZM138.34,473.17c-.48-9.11,1.49-15.94,5.37-22.91-3.71.33-5.72,1.9-6.8,4.53-3.68,8.96-4.75,18.07,1.42,18.38ZM187.57,493.48c.66.53,1.96,1.49,1.66,1.93l-1.56,2.23c-.28.4-.4,1.81-.37,2.3s1.58.84,1.82.42l1.13-1.96c1.26-10.62.77-20.64-3.16-31.25-.84,2.17-1.44,5.37-1.18,6.93l1.07,6.4,1.92,3.04c.37.59-1.24,2.13-1.56,2.75l-1.03,2.02c-.26.5,3.2,2.01,2.25,3.57l-.98,1.61ZM193.15,496.01l-3.04,10.08c25.26-6.9,49.21-15.54,73.58-25.65l2.15-9.58-31.31,12.88c-3.68,1.51-6.12,2.09-10.27,3.24l-20.75,5.75-10.36,3.28ZM182.75,489.99c.04-1.71,1.72-4.06,2.92-4.59-.41-.04-2.72-.67-2.86-1.4l-1.21-6.13c-5.51,3.35,1.52,15.71-4.09,30.54.88-.07,3.03-.88,3.8-1.68s1.1-3.23,1.13-4.46l.32-12.28ZM267.76,519.49l9.29-7.04-4.6-25.37c-.32-1.75.09-5.14.38-7.39l-23.69,10.42c4.95,18.64,7.71,37.57,9.28,56.85l1.95,24.07,12.78-20.96c-2.35-3.1-6.18-7.1-6.77-10.26l-2.35-23.84-3.39-28.99,1.51.52,4.63,32.11.99-.13ZM155.3,489.28c3,7.16,6.06,13.69,11.8,18.56,8.44,7.16,12.31-12.26,9.3-26.47-5.93,9.11-14.08,5.81-23.56,2.03l2.47,5.88ZM235.47,638.12l3.09,21.45c1.67,10.82,4.04,21.11,7.19,31.49.83.33,2.3.92,2.12,1.37s-.98,1.84-1.4,1.57l-2.29-1.44c3.79,9.82,8.81,19.22,17.51,28.05l-.84-44.4-5.46-5.4-2.54,4.98c.19-5.25.54-6.55-.98-9.63l-9.61-19.47,1.19-1.06,4.11,7.95,1.15,2.22c.26.5,1.52-.83,1.25-1.32l-1-1.81-6.72-11.39-5.18-16.48c-2.6-8.27-3.18-17-3.98-26.22,2.42,2.27,1.44,6.16,2.2,9.12l4.7,18.37c3.57,13.95,9.56,26.54,20.5,37.43l-3.16-70.55-2.99-49.16c-3.96-2.23-7.65-5.31-6.98-10.05l6.48,8.11-.7-10.89-4.28,2.3c1.41-2.51,1.97-2.99,3.93-4.43l-3.79-24.86-3.56,1.02c-.59.17-1.1-2.85-.55-2.8l3.68.33-2.28-11.12-13.67,4.83.06,12.71.58,20.15c.84,29.12-1.37,57.34-3.59,86.41l-7.58,99.41-1.14,11.4-3.62,30.79-.46,19.96,8.89-.02c-.54-4.57-.81-8.02-.38-12.24l3.24,11.86c10.2-1.69,31.31-8.12,27.76-10.57l-2.85-1.97,1.26,3.56c-18.76-13.23-24.12-41.49-26.77-65.39,6.03,22.65,8.12,51.89,33.19,64.25l.47-34.39c-5.13-4.31-9.29-9.6-12.36-15.58l-3.79-7.39c.86-1.31,2.5-3.25,1.91-4.08l-2.41-3.41c-4.32-10.25-8.57-21.43-10.31-33.16l6.03,15.51c-2.89-14.07-5.76-27.66-6.88-41.94l-1.18-15.1-.26-12.41c2.61,7.28,1.83,15.23,3.03,23.55ZM134.85,498.93l-7.4-3.67-1.45,7.53,4.4,1.64-3.37,2.41c-.56,0-2.59-.65-2.77-.05l-.97,3.23,6.41,1.9,4.28-11.96c.05-.13.19-.25.87-1.04ZM217.73,725.67l-9.67,5.13-6.1-4.6c1.79-.91,4.38.09,6.71,3.06l5.68-4.41-1.12-2.44c-.18-.4,1.29-1.6,1.49-1.21l1.53,2.88c-.43.53,1.66.33,2.01-.17l.1-6.91-6.18,3.31c.66-2.83,2.54-4.33,6.13-4.58l1.28-10.78,4.43-56.28-3.53-1.01c-.38-.11.78-1.24,1.17-1.34l2.58-.65,1.64-23.77c2.01-29.2,3.63-57.61,4.42-86.85.35-12.88,1.18-24.72.3-37.82l-12.36,3.71-.94,12.03-.75,22.11-9.3,104.7c3.01-.09,5.86,1.15,6.02,4.32l-5.8-3.22-.97,4.44,6.57.8c-.81,1.93-1.66,3.46-2.39,3.17l-4.17-1.61-7.48,72.31c-.23,2.22,1.4,4.58,2.8,5.8l-3.44-.52-3.95,60.09c6.82.6,13.31.17,19.26-.86l1.15-23.5,2.89-35.35ZM198.26,554.02l-8.11,71.05-14.1,122.8-2.72,30.76,17.84-.92,4.2-56.73,1.19-13.14,14.53-148.4,5.08-57.83c-3.05,4.06-3.67,8.07-5.17,12.47-9.59,28.32-21.87,54.98-37.01,81.06l-13.39,97.42-5.92,48.01-3.58,35.71,19.41,1.54,9.95-91.96,7.77-63.61,6.4-50.53c.77-6.28.04-12.81,3.62-17.72ZM134.13,622.07l-14.13,19.9-11.87,15.1-8.56,10.37-.14,27.33,12.11-14.3,24.43-32.44c12.11-16.08,21.97-32.53,32.16-49.96,17.76-30.37,32.71-61.36,44.67-95.09l-12.19,3.49-1.17,4.89c-11.13,23.51-23.21,45.82-37.39,67.62l-22.85,36.2-4.42,5.81-.63,1.08ZM127.45,513.47l-5.3-1.25-1.85,7.33,7.14-6.08ZM267.36,521.05l1.14,13.16,10.74-9.12c.42-1.5-.74-4.12-2.33-5.19l-.79,5.47-2.91-1.7c-.45-.26-1.21,0-2.97-.07,2.57-4.93,9.43-4.21,7-8.93l-8.35,5.71-1.54.67ZM272.74,543.73l-1.02-8.5c-1.92,1.35-2.77,3.62-2.05,5.46.44,1.12,2.23,2.86,3.07,3.04ZM130.99,752.43l-1.8,19.69,19.48,3.99,3.24-29.28c5.34-48.21,11.06-95.55,18.09-143.95l-26.06,40.81-2.75,20.34-3.75,32.22-2.15,17.86-4.3,38.32ZM134.17,620.17l1.3-5.3c-11.74,16.47-24.07,31.3-37.14,47.15,8.97-6.05,14.71-14.53,20.87-22.7l14.05-18.62.92-.53ZM113.29,766.41l13.61,4.5,8.26-72.66,5.52-49.73-16.99,22.97-2.41,17.51-7.94,67.2-.05,10.21ZM259.9,672.72c2.13-3.98.3-5.39-1.83-7.95l-5.8-6.95c-.42-.5-2.73.11-2.39.67l1.32,2.19c2.69,4.45,4.99,7.89,8.71,12.04ZM104.78,761.18l5.73,3.34,9.12-74.7,1.21-14.19-10.01,12.05-3.35,34.46-2.7,39.04ZM261.22,729.27c2.26-3.82-.74-5.46-2.53-7.87l-7.59-10.2c-.59.1-1.17,3.79-.33,4.86l10.46,13.2ZM110.59,786.98l14.43,5.7,1.64-17.45-22.29-8.95,1.18,18.32,2.81.4c.45.06.44-1.39.51-1.89l1.39-9.71,1.81.63-1.5,12.93ZM217.17,798.35c14.37-4.04,27.59-5.09,40.37-10.84,2.05-.92,3.23-2.29,3.56-4.17l-6.86,2.08c.22-3.5.85-6.98,1.67-8.97,2.53,3.42,2.49,3.65,4.72,5.47l.09-9.97c.01-1.46-4.05-1.35-5.27-.65-8.26,4.73-16.62,7.4-26.17,9.01l-12.8-.15-.31,30.25c15.38-1.36,29.85-5.2,43.63-11.56l.69-1.82c.17-.45-.69-2.24-1.05-1.94l-2.06,1.7c-.82.68-3.06,1.02-4.09.52l7.71-7.87c-14.78,4.8-28.53,11.02-43.82,8.89ZM147.33,797.8l1.19-17.86-19.92-4.03-1.28,17.46,20.01,4.43ZM168.77,799.35l1.49-17.09-19.62-1.84-1.32,17.73,11.13,1.42,8.32-.21ZM171.38,802.66l-.42,9.45,18.56-1.08,1.57-29.49c-5.87.98-11.69.99-18.01.06l-1.55,18.38,17.99-.08c-.56.74-2.59,2.02-3.46,2.06l-14.68.69ZM212.91,803.05l.88-15.62-19.52.5-.92,16.37c6.55,1.09,12.93.78,19.56-1.25ZM124.3,805.62l.37-9.82-19.27-7.69.15,10.42,18.75,7.09ZM146.3,810.63l.51-9.72-19.98-4.48-.56,10,20.04,4.19ZM168.05,812.21l.59-9.43-19.24-1.53-.83,9.64,19.49,1.32ZM204.19,816.66c2.66-.08,6.81-1.08,9.11-2.01l.05-8.49-20.03,1.24-.13,9.59,11.01-.33ZM209.89,848.75c6.73,1.56,14.19,1.51,20.26-.06l5.56-37.13-19.55,2.33-.99,5.04-8.51,1.14,3.22,28.67ZM157.44,850.31l5.36-34.54c-10.04-.32-20.4-1.78-31.19-3.97l5.63,39.32c7.56.96,14.39.75,20.2-.81ZM233.24,858.94c-1.33-1.9-2.33-3-1.99-3.72l1.61-3.41c-9.38,2.49-16.93,2.07-26.34-.42l3.47,5.4-3.04.82c-.54.15.21,1.76.69,2.05,4.63,2.83,19.01,2.39,25.6-.72ZM159.7,858.47l-2.65-.29c1.32-2.05,2.39-3.83,2.81-5.04-10.05,2.18-16.78,2.49-25.91,0,.34,2.94,2.51,4.48,5.17,5.36l-5.92,1.88c15.58,8.43,32.82-1.2,26.5-1.9ZM259.39,889.73c3.03-2.14,7.76-.58,9.23,2.4.74,1.5.97,1.95,1.43,2.38s1.83-1.21,1.5-1.73l-1.56-2.43c-.01-.1,1.71-.27,2.16.09l2.22,1.73c-.17,1.12.02-.06.3-1.78l-10.56-4.19c-13.23-3.06-26.89-12.01-33.98-22.69-6.72,1.89-14.07,1.75-20.96.39l-4.07,15.1c-.72,2.66-1.03,6.74.56,8.71,5.08,6.33,16.54-1.08,30.45,6.03,5.74,2.94,11.87,3.46,17.91,1.45l8.03,1.43c2.37.42,5.18-2.91,4.54-4.61l-7.19-2.29ZM107.05,895.98l6.37-.6-6.63,2.73c-1.14.47-2.64,1.17-2.61,2.04.02.69,1.71,2.74,2.38,2.61l8.36-1.6c6.18.8,12.01.59,17.35-3,6.52-4.38,13.61-6.71,21.69-6.55,5.03.1,9.43-4,8.13-9.11l-4.39-17.14c-6.72,2.34-13.87,2.64-20.82.72-6.66,7.93-14.15,16.13-23.49,21.23l-15.33,5.61c-2.84,1.04-5.13,1.42-6.34,3.53l6.17-1.61-3.38,4.48,8.84-4.5-4.61,4.45c-.22.32-.06,2.12.34,2.12l2-.03c.5-1.98,3.59-5.15,5.95-5.38Z"/>
      <path class="cls-1" d="M112.44,307.55l-2.93,5.13-2.37-3.4c-.47-.68-2.92,1.12-3.08,1.92l-1.62,7.93c-1.59-2.54-1.9-6.09-.92-9.47,1.03-3.57,4.49-6.33,7.96-6.49,5.87-.26,10.04,7.68,9.19,8.07-.61.28-2.04.25-2.55-.22l-3.69-3.48Z"/>
      <path class="cls-1" d="M113.24,605.03l10.64-11.09c1.94-3.17,4.13-5.85,7.36-7.97-4.36,7.77-9.63,14.79-18,19.06Z"/>
      <path class="cls-1" d="M142.49,545.23l-1.23-3.31c-.34-.92,2.61-1.65,3.67-1.54l5.77-6.2.93,1.91-9.15,9.14Z"/>
      <path d="M198.26,554.02c-3.58,4.91-2.85,11.44-3.62,17.72l-6.4,50.53-7.77,63.61-9.95,91.96-19.41-1.54,3.58-35.71,5.92-48.01,13.39-97.42c15.14-26.08,27.42-52.74,37.01-81.06,1.49-4.41,2.12-8.41,5.17-12.47l-5.08,57.83-14.53,148.4-1.19,13.14-4.2,56.73-17.84.92,2.72-30.76,14.1-122.8,8.11-71.05Z"/>
      <path d="M235.47,638.12c-1.2-8.32-.42-16.27-3.03-23.55l.26,12.41,1.18,15.1c1.12,14.28,3.99,27.87,6.88,41.94l-6.03-15.51c1.74,11.74,5.99,22.91,10.31,33.16l2.41,3.41c.59.83-1.06,2.77-1.91,4.08l3.79,7.39c3.06,5.97,7.23,11.27,12.36,15.58l-.47,34.39c-25.06-12.36-27.15-41.6-33.19-64.25,2.64,23.91,8.01,52.16,26.77,65.39l-1.26-3.56,2.85,1.97c3.56,2.45-17.56,8.88-27.76,10.57l-3.24-11.86c-.43,4.22-.16,7.67.38,12.24l-8.89.02.46-19.96,3.62-30.79,1.14-11.4,7.58-99.41c2.22-29.07,4.43-57.29,3.59-86.41l-.58-20.15-.06-12.71,13.67-4.83,2.28,11.12-3.68-.33c-.55-.05-.04,2.97.55,2.8l3.56-1.02,3.79,24.86c-1.96,1.44-2.52,1.93-3.93,4.43l4.28-2.3.7,10.89-6.48-8.11c-.67,4.74,3.01,7.83,6.98,10.05l2.99,49.16,3.16,70.55c-10.95-10.89-16.94-23.48-20.5-37.43l-4.7-18.37c-.76-2.96.21-6.86-2.2-9.12.8,9.22,1.38,17.95,3.98,26.22l5.18,16.48,6.72,11.39,1,1.81c.27.49-.99,1.82-1.25,1.32l-1.15-2.22-4.11-7.95-1.19,1.06,9.61,19.47c1.52,3.08,1.17,4.38.98,9.63l2.54-4.98,5.46,5.4.84,44.4c-8.7-8.84-13.73-18.24-17.51-28.05l2.29,1.44c.42.26,1.22-1.12,1.4-1.57s-1.29-1.04-2.12-1.37c-3.14-10.38-5.51-20.67-7.19-31.49l-3.09-21.45ZM245.14,526.91c3.5-4.62,1.77-9.59.3-14.28-1.84-5.86-3.21-11.25-5.97-17.31.98,8.57,3.79,15.76,6.47,24.03l-.79,7.56ZM246.68,747.87c-1.02-9.6-3.58-17.43-5.43-26.04l-8.82-48.39-1.34-.46,6.73,42.13c1.85,11.59,3.93,22.87,8.85,32.76Z"/>
      <path d="M104.93,427.64l7.48-17.47,18.03-40.5c.61-4.66-1.42-11.76-3.84-16.84-.77,4.86,2.58,10.98.65,15.72l-7.43,18.29c-9.28-8.84-20.76-13.74-33.96-14.29l8.68-27.1c5.28-16.47,10.31-23.54,26.59-29.04,6.74,15.81,10.19,31.34,12.19,48.15,4.66,26.08,7.63,51.8,8.6,78.27.4.48,1.4,1.73,1.57,1.45l1.01-1.64,2.86,1.64-.89-32.69-.86-24.49c-.19-5.44-.98-11.21,1.4-16.15-1.45-2.16-3.4-5.63-3.6-8.51-1.17-17.31-3.57-33.55-9.32-49.9l18.46-5.62c-1.17,5.41-1.41,9.94-.44,14.57l1.88,8.97c.49,2.32,1,3.99,1.96,6.51,1.68,4.4,2.35,9.75,3.53,14.22l2.81,10.65c.7,2.67.62,3.62,1.68,6.1,6.62,15.47,5.46,29.59,20.13,37.58-6.28,10.51-.66,14.65,3.43,22.8l-26.35,8.66c-6.09,2-9.68,5.91-9.85,13.49-3.58-3.55-5.31-3.82-8.54-2.75l-5.95-2.98c-2.69-1.35-4.83-2.08-8.21-1.09-8.2-4.61-16.12-10.59-23.69-16.02ZM130.84,441.3c4.42-5.24.53-10.8.04-15.94l-8.48-31.91c-2.61,3.91-.91,7.32-.06,11.01l8.51,36.84Z"/>
      <path d="M249.36,474.93l-16.48,5.71c-3.47,1.2-5.85,1.89-9.15,2.97l-30.5,9.99c.44-8.19-.11-17.08-3.07-25.54l-5.16-14.78c-.73-2.09-1.31-3.64-2.74-5.47l-8.85-11.31,15.68-6.11,3.46,1.57c4.17-5.07,7.62-11.1,9.39-18.07l-3.67-9.04c5.36-3.65,8.11-9.44,10.21-15.62,4.15-12.23,7.53-24.26,10.24-36.86l1.75-8.15c.63-2.93,1.68-5.99,3.08-8.18-.39-1.26-.76-3.76-.41-4.92l1.82-5.96c.24-.79-1.96-2.98-1.54-3.73l2.18-3.88-2-8.21,13.21,3.7c.72.2,2.7-1.49,3.33-2.04.44,5.06.36,9.74-.46,14.83-5.05,31.34-11.91,61.58-22.15,91.66l-13.08,4c-2.12.65-3.84,2.12-4.5,5.06l23.13-7.22,24.02-6.88c8.33,8.49,13.79,19.66,16.98,31.87-3.09.3-5.59,1.13-8.7,2.14l-25.51,8.35c-2.67.88-4.99,1.31-7.36,2.69l-31.46,10.62c9.77-.18,17.76-4.82,26.96-6.92,3.44-.78,6.63-1.77,9.42-3.48l2.17.85c.53.21,1.82-1.53,2.46-1.75l31.78-11.32c1.94,8.19,2.62,15.4,2.67,22.52l-17.15,6.91ZM182.37,447.23l36.7-13.03c10.61-3.77,22.18-6.73,32.36-9.21.84-.21,2.19-1.11,2.67-1.52.31-.28-.33-1.74-.74-1.67l-2.3.39-5.78,1.45-23.37,6.41c-1.53.42-3.77.02-5.17-.75-7.74,8.13-25.78,8.33-34.36,17.93ZM227.09,465.18c12.94-3.12,26-8.93,36.53-17.61-21.01,9.62-39.93,18.66-62.26,21.77-2.73.38-6.41,1.69-8.58,2.43l.79,1.5,33.53-8.09Z"/>
      <path d="M217.73,725.67l-2.89,35.35-1.15,23.5c-5.95,1.03-12.44,1.46-19.26.86l3.95-60.09,3.44.52c-1.39-1.22-3.02-3.58-2.8-5.8l7.48-72.31,4.17,1.61c.73.28,1.58-1.24,2.39-3.17l-6.57-.8.97-4.44,5.8,3.22c-.16-3.17-3.01-4.4-6.02-4.32l9.3-104.7.75-22.11.94-12.03,12.36-3.71c.88,13.1.05,24.94-.3,37.82-.79,29.24-2.41,57.65-4.42,86.85l-1.64,23.77-2.58.65c-.39.1-1.56,1.23-1.17,1.34l3.53,1.01-4.43,56.28-1.28,10.78c-3.58.25-5.46,1.74-6.13,4.58l6.18-3.31-.1,6.91c-.35.5-2.44.7-2.01.17l-1.53-2.88c-.21-.39-1.68.81-1.49,1.21l1.12,2.44-5.68,4.41c-2.34-2.97-4.93-3.97-6.71-3.06l6.1,4.6,9.67-5.13Z"/>
      <path d="M130.99,752.43l4.3-38.32,2.15-17.86,3.75-32.22,2.75-20.34,26.06-40.81c-7.02,48.4-12.75,95.75-18.09,143.95l-3.24,29.28-19.48-3.99,1.8-19.69Z"/>
      <path d="M134.76,620.98l4.42-5.81,22.85-36.2c14.18-21.8,26.26-44.12,37.39-67.62l1.17-4.89,12.19-3.49c-11.95,33.72-26.91,64.71-44.67,95.09-10.19,17.43-20.05,33.89-32.16,49.96l-24.43,32.44-12.11,14.3.14-27.33,8.56-10.37,11.87-15.1,14.13-19.9-.88-1.37-14.05,18.62c-6.17,8.17-11.9,16.66-20.87,22.7,13.07-15.86,25.4-30.68,37.14-47.15l-1.3,5.3.59.81ZM109.07,674.36l4.79-6.51-3.51-5.8c-.87.48-3.27,1.5-3.06,2.3l.75,2.84,1.04,7.18Z"/>
      <path d="M126.65,446.35c-5.16,5.4-7.46,12.77-6.7,20.48l-24.49-5.5c-9.05-2.03-16.97-6.98-24.15-12.6-3.65-2.86-4.37-7.49-3.28-11.75l3.85-17.16,9.75-32.43c11.62-.27,22.45,4.65,31.1,12.3l-11.11,26.14c-3.62-1.27-7.8-2.2-11.38.18,14.63,2.75,22.92,13.89,36.41,20.34Z"/>
      <path d="M221.74,264.06l6.72,1.48-.16,4.41c-.04.97-3.23.86-4.28.83l-10.29-.26c3.51,2.86,8.12,3,13.02,2.91-.29,1.37-2.24,2.76-3.26,2.39l-5.37-1.94c.78,2.51,2.39,4.17,6.43,4.19l-.51,6.41c-.58,7.41-37.18,3.78-44.34-16.91l-1.61-6.84-3.77,2.98c-2.45,1.93-11.42-9.33-8.58-19.11.61-2.11,3.56-4.48,5.28-4.12,8.18,1.76,3.7,11.26,12.13,14.24-.8-3.68-1.49-5.37-.03-8.39l1.2,6.7,1.72.37-.57-8.15c2.93-2.74,5.32-6.54,6.73-10.17l22.33-13.55c4.55,4.03,10.61,6.49,16.74,7.28l1.29,7.02c-9.58,6.98.67,15.07,1.76,27.6l-11.81-.18-.75.81ZM222.72,238.51c-4.89-3.77-10.51-3.3-14.97-.8l14.97.8ZM219.07,249.44c-1.38-1.29-2.51-2.48-2.02-2.67l3.38-1.33c-3.71-3.62-10.25-1.46-17.31,1.51l3.56.87c3.21,3.68,8.68,4.82,12.38,1.61ZM170.47,249.22l4.77,1.86c-.42-2.48-2.13-4.54-4.15-5.05-2.76,3.62-2.46,10.64,3.76,11.59l-4.38-8.4ZM222.69,262.16l1.13-4c-1.62-2.8-4.64-2.29-6.53-.68-1.39,1.18-1.4,5.59.37,5.6l3.64.03,1.38-.95Z"/>
      <polygon points="113.29 766.41 113.34 756.2 121.28 689.01 123.68 671.49 140.68 648.52 135.16 698.25 126.9 770.92 113.29 766.41"/>
      <path d="M212.7,304.13c.61,10.8-6.33,20.22-17.19,22.44-15.19,3.11-30.14-8.09-33.06-22.94,9.42-1.97,9.48-13.21,12.07-22.96l5.89-4.16c6.27,8.42,17.18,12.54,27.39,14.42-.75,5.92-.45,10.46,1.24,16.42l2.52-1.45-1.09-2.58c-.15-.37,1.56.42,2.23.81Z"/>
      <path d="M216.14,305.5l-.54,14.47c-.49,13.14-10.37,43.56-20.36,52.44-3.03-.6-4.99-.35-6.84.94-14.31-11.21-21.4-34.12-27.02-52.78l-1.95-9.74c-.52-2.58-1.15-5.02-.19-7.27l3.67,9.45c4.54,11.7,16.73,17.91,28.85,17.43-.57.52-1.87,1.58-1.59,2.05l1.88,3.18.94-5.11c12.94-1.52,20.44-11.4,23.15-25.07ZM205.74,334.8l5.48-4.83c.19.16-1.87-1.57-2.68-2.25-.65-.55-8.08,12.84-21.19,10.98l-6.93-3.32c-6.27-3.01-10.31-8.52-14.88-14.76-2.24,3.48.35,7.99,4.26,9.1.18,1.72.25,3.55,1,3.81l3.47,1.2,3.74,3.77c.74.75,3.33.18,4.09.31l5.27,2.66c-.43,1.85-.3,5.56,1.22,6.56,1.66,1.09,5.28,1.38,6.28.1s1.41-5.24,1.47-6.87c3.24-1.64,6.7-4.08,9.4-6.46Z"/>
      <path d="M181.88,210.35c.01-1.1-.16-2.74-.69-2.96s-2.01-.24-2.66-.05l-13.31,3.75c-5.35,1.51-11.39,1.35-17.74,1.67-.1-5.27,2.07-11.4,7.11-14.76-.89,4.92-4.56,8.41-3.11,13.63,4.08-12.69,12.75-22.22,26.01-23.88-6.19-2.85-10.32,1.89-15.69,2.7,13.26-11.6,36.68-7.09,52.14,1.86-7.35,5.28-14.42,9.94-22.17,14.36l-6.19,3.53-1.25-.92c-.33-.24-1.06,1.37-1.28,2-10.41,5.99-21.51,9.83-33.3,12.4l-4.58,1.97-.51-9.55c13.54-.54,24.1-2.05,37.23-5.72Z"/>
      <path d="M107.05,895.98c-2.37.22-5.45,3.39-5.95,5.38l-2,.03c-.4,0-.56-1.8-.34-2.12l4.61-4.45-8.84,4.5,3.38-4.48-6.17,1.61c1.21-2.11,3.5-2.49,6.34-3.53l15.33-5.61c9.34-5.09,16.83-13.29,23.49-21.23,6.95,1.92,14.1,1.62,20.82-.72l4.39,17.14c1.31,5.11-3.09,9.21-8.13,9.11-8.08-.16-15.17,2.17-21.69,6.55-5.34,3.59-11.16,3.8-17.35,3l-8.36,1.6c-.67.13-2.36-1.91-2.38-2.61-.03-.87,1.47-1.57,2.61-2.04l6.63-2.73-6.37.6Z"/>
      <path d="M246.11,390.06l2.12,19.39-12.7,2.72,8.07-31.12,9.16-42.41,3.07-17.06c5.11,4.1,8.87,9.35,10.01,15.57l7.34,39.95-24.71,7.69-2.03-9c-.87,5.04-.86,9.26-.31,14.26Z"/>
      <path d="M259.39,889.73l7.19,2.29c.64,1.7-2.17,5.03-4.54,4.61l-8.03-1.43c-6.04,2.01-12.17,1.49-17.91-1.45-13.91-7.11-25.37.3-30.45-6.03-1.58-1.97-1.27-6.05-.56-8.71l4.07-15.1c6.89,1.36,14.24,1.5,20.96-.39,7.08,10.67,20.75,19.62,33.98,22.69l10.56,4.19c-.28,1.72-.47,2.89-.3,1.78l-2.22-1.73c-.45-.35-2.17-.18-2.16-.09l1.56,2.43c.33.52-1.05,2.15-1.5,1.73s-.68-.87-1.43-2.38c-1.47-2.98-6.2-4.54-9.23-2.4Z"/>
      <path d="M266.77,519.62l-4.63-32.11-1.51-.52,3.39,28.99,2.35,23.84c.59,3.16,4.42,7.16,6.77,10.26l-12.78,20.96-1.95-24.07c-1.56-19.28-4.33-38.21-9.28-56.85l23.69-10.42c-.29,2.25-.7,5.63-.38,7.39l4.6,25.37-9.29,7.04,1.14.89,8.35-5.71c2.43,4.72-4.43,4-7,8.93,1.75.07,2.52-.19,2.97.07l2.91,1.7.79-5.47c1.6,1.07,2.75,3.69,2.33,5.19l-10.74,9.12-1.14-13.16-.59-1.43Z"/>
      <path d="M217.17,798.35c15.29,2.13,29.03-4.09,43.82-8.89l-7.71,7.87c1.03.49,3.27.15,4.09-.52l2.06-1.7c.37-.3,1.22,1.49,1.05,1.94l-.69,1.82c-13.78,6.37-28.25,10.2-43.63,11.56l.31-30.25,12.8.15c9.55-1.61,17.91-4.27,26.17-9.01,1.22-.7,5.28-.81,5.27.65l-.09,9.97c-2.22-1.82-2.19-2.05-4.72-5.47-.82,1.99-1.45,5.47-1.67,8.97l6.86-2.08c-.33,1.88-1.51,3.25-3.56,4.17-12.78,5.75-26,6.8-40.37,10.84ZM243.82,786.2l-4.26-3.83-2.79,5.48,3.65,3.37,3.39-5.01Z"/>
      <path d="M175.77,474l-11.34-1.7c3.9,4.71,9.78,2.9,15.94,3.29-4.84,5.82-11.35,2.95-18.23,2.82,3.05,3.68,7.55,3.09,11.44,3.05-4.95,7.59-20.75.37-28.03-8.14l-4.09-2.14c-.73-5.82.54-12.59,4.06-17.57,2.82-.6,6.71-1.43,9.14-2.85,7.74-4.51,16.56-2.83,23.84,1.4l3.12-2.1c1.5-1.01,3.85,6.28-16.93,4.69.07,2.15,2.51,5.57,4.57,6.03l16.61,3.73c-.8,1.49-3.68,3.65-5.65,3.43l-13.57-1.53c4.93,3.36,10.58,3.52,17.25,3.34-1.24,2.33-4.97,4.73-8.12,4.26Z"/>
      <path d="M247.38,328.45c2.7-2.16,4-5.66,3.2-9.58l1.76-.37c.49-.1.68,2.03.62,2.58-2.5,22.83-7.46,44.56-13.28,66.62l-6.72,25.5-13.42,3.59c7.36-23.34,12.93-45.93,17.93-69.49,2.33-10.98,4.25-20.68,5.45-32.32l3.71,1.61-.15,10.67c-.01.94-3.49,2.56-2.96,3.34l2.48,3.64-3.61,5.04c1.21,1.15,2.82,2.25,5.1,2.76l-2.26-3.64c2.07-2,5.81-6.13,2.17-9.96ZM239.79,375.63l-2.61-5.14c4.42-1.71,4.8-5.23,3.82-9.49,2.9-1.7,4.56-4.62,2.5-8.08l1.21-9.83c-6.32,7.52,2.4,13.02-6.47,16.52l-.79,7.29-2.24,3.14,2.3,10.06,2.29-4.47Z"/>
      <path d="M157.44,850.31c-5.81,1.56-12.64,1.77-20.2.81l-5.63-39.32c10.79,2.19,21.16,3.65,31.19,3.97l-5.36,34.54Z"/>
      <path d="M209.89,848.75l-3.22-28.67,8.51-1.14.99-5.04,19.55-2.33-5.56,37.13c-6.08,1.56-13.54,1.61-20.26.06Z"/>
      <path d="M189.46,396.32l-4.05,6.76c-11.32-7.86-13.57-23.59-17.75-36.25l-1.82-5.53-3.14-11.32-3.67-13.14c-2.82-10.09-6.45-20.08-3.73-31.37.95-.15,1.13,2.36.84,4.14,3.84,19.13,9.57,37.9,19.15,55.05l3.94,6.22c3.48,1.92,7.34,4.5,9.75,7.54-2.78,1.83-4.44,3.24-4.53,4.98-.15,2.88,1.22,5.38,3.11,6.9.84.91,2.62,4.82,1.9,6.02Z"/>
      <path d="M149.25,235.56l11.02-3.06c-1.84,1.85-1.3,3.49.51,1.75,10.85-7.36,24.94-9.42,36.96-16.45-.32-1.47-.39-2.24-.84-2.24l-2.58-.02c-8.83,5.85-18.23,10.18-28.46,13.16l-18.63,4.97c-.74-1.19-1.81-4.29-2-5.83l14.19-4.78c1.69-.57,3.69-.04,5.93.61,2.24-.13,6.26-1.4,8.8-2.37l-10.05.42,16.59-6.19c2.48-.93,5.9-3.99,8.46-5.09,10-4.34,18.3-9.93,26.85-16.37,4.26-3.21,6.72-6.22,9.61-11.33.43,3.92-1.65,7.55-4,9.87l-2.17-.89c-.3-.12-.28,1.3-.04,1.52l1.5,1.44-11.25,11.3c8.24-3.57,14.48-11.08,17.61-18.78l.74-2.75c.13-.47,1.05.08,2.43.82l-4.9,12.55c4.56-2.42,4.15-7.24,6.51-11.62,2.15,5.87-2.77,9.12-5.21,14.08,4.26-1.35,5.14-5,7.72-9.34.66-.54.88-.61,1.5,1.1-8.6,19.43-41.31,34.99-61.79,42.02-6.87,2.36-15.2,4.06-22.1,5.85-.84.22-3.08-.44-3.79-.83s-.08-3.25.9-3.52Z"/>
      <path d="M193.15,496.01l10.36-3.28,20.75-5.75c4.14-1.15,6.59-1.73,10.27-3.24l31.31-12.88-2.15,9.58c-24.37,10.11-48.32,18.75-73.58,25.65l3.04-10.08Z"/>
      <polygon points="104.78 761.18 107.48 722.14 110.84 687.68 120.84 675.64 119.64 689.82 110.51 764.52 104.78 761.18"/>
      <path d="M143.21,379.33l.86,15.69.61,10.07c.54,8.94.32,17.41-.16,26.08l-2.56-14.22c-3.66-35.31-7-67.4-18.52-101.66l8.07-2.12c1.24,3.75,3.26,7.67,3.87,11.19l5.15,29.92,1.81,14.39-4.19,2.13c3.2,2.85,4.85,4.64,5.06,8.52Z"/>
      <path d="M196.82,401.41l-3.66-6.05,3.61-5.83c.84-1.36,2.67-3.64,2.68-5.06.02-1.84-1.77-3.94-4.38-5.49.62-1.68,2.57-5.17,3.81-6.73l3.12.83c1.74.47.33-2.88,4.06-10.06,6.67-12.84,10.12-27.01,11.63-41.3l1.58-15.01c2.99,4.48,3.54,14.23,1.4,18.7.44,2.91.39,7.08-2.02,10.12,0,4.64-1.09,9.52-2.76,13.24.2,5.36-2.3,10.38-3.64,15.28l-5.42,19.78c-1.89,6.91-5.4,12.72-10.01,17.58Z"/>
      <path d="M171.38,802.66l14.68-.69c.87-.04,2.9-1.32,3.46-2.06l-17.99.08,1.55-18.38c6.32.93,12.14.92,18.01-.06l-1.57,29.49-18.56,1.08.42-9.45Z"/>
      <path d="M155.3,489.28l-2.47-5.88c9.48,3.78,17.63,7.08,23.56-2.03,3.01,14.22-.85,33.63-9.3,26.47-5.74-4.87-8.79-11.4-11.8-18.56ZM172.82,497.29l-3.47,6.67-7.64-8.08c.38,3.64,3.53,8.77,7.32,9.13,3.5.33,5.17-6.25,3.79-7.72Z"/>
      <polygon points="147.33 797.8 127.32 793.37 128.6 775.91 148.52 779.94 147.33 797.8"/>
      <path d="M115.03,397.77c-9.28-8.43-20.76-12.86-32.95-13.49l2.8-8.92c12.47.01,24.35,4.97,33.89,14.13l-3.74,8.29Z"/>
      <polygon points="168.77 799.35 160.45 799.56 149.33 798.14 150.65 780.42 170.27 782.26 168.77 799.35"/>
      <path d="M110.59,786.98l1.5-12.93-1.81-.63-1.39,9.71c-.07.49-.06,1.95-.51,1.89l-2.81-.4-1.18-18.32,22.29,8.95-1.64,17.45-14.43-5.7Z"/>
      <path d="M212.91,803.05c-6.63,2.03-13.01,2.34-19.56,1.25l.92-16.37,19.52-.5-.88,15.62Z"/>
      <path d="M268.38,440.11c-1.28,3.2,1.29,6.89,1.73,10.06l.98,7.08.04,7.75-.92,5.83c-.48,3.05-1.73,6.51-3.97,9.19,4.47-19.94,1.54-39.99-9.09-57.75,5.62-.9,5.27,4.75,6.56,7.17l2.69,5.07,3.41-3.19c.67-.62-.48-3.34-.99-5.05-.23-.13-2.14.5-3.71,1.07-1.1-1.5-.59-4.29.93-6.59l-8.2-10.25c6.21,1.43,9.32,7.08,12.47,12.15,8.86,14.26,12.41,37.24,6.99,52.19-.17.47-2.56,1.28-2.63.79-.51-3.64,4.38-9.5.68-18.83l1.53-3.24c.3-.64-2.03-1.94-2.06-2.64l-.19-5.92c-.03-1,1.06-3.71.21-4.14l-4.23-2.14c1.21-1.98,1.43-4.86-.1-7.24l-.87,5.51-2.69-2.34c-.44.83-1.4,2.53-1.02,2.93l2.44,2.52Z"/>
      <path d="M273.19,388.45l-14.06,4.53-9.63,2.04-.81-8.39,25.01-7.22c.49,1.32,1.09,2.66.67,2.87l-2.18,1.11c-.34.17-1.57.99-1.21,1.12l2.15.8,2.21,1.16c.54.28-1.48,1.76-2.15,1.98Z"/>
      <path d="M159.7,858.47c6.32.7-10.92,10.32-26.5,1.9l5.92-1.88c-2.66-.88-4.83-2.41-5.17-5.36,9.13,2.49,15.87,2.19,25.91,0-.43,1.21-1.49,2.99-2.81,5.04l2.65.29Z"/>
      <polygon points="146.3 810.63 126.26 806.44 126.83 796.43 146.81 800.91 146.3 810.63"/>
      <path d="M233.24,858.94c-6.59,3.11-20.97,3.55-25.6.72-.48-.29-1.23-1.9-.69-2.05l3.04-.82-3.47-5.4c9.41,2.49,16.96,2.9,26.34.42l-1.61,3.41c-.34.72.66,1.82,1.99,3.72Z"/>
      <path d="M147.01,198.26l-9.27.25c-3,.08-5.58-.8-7.09-3.77-1.8-3.51,6.56-9.96,9.04-10.55,1.73-.41,5.17,1.21,6.49,2.41,3.01,2.72,4.27,5.96,2.81,9.64-2.69-2.53-3.67-3.88-7.83-5.36l5.85,7.38Z"/>
      <polygon points="124.3 805.62 105.55 798.53 105.4 788.11 124.67 795.8 124.3 805.62"/>
      <polygon points="168.05 812.21 148.57 810.9 149.4 801.26 168.64 802.78 168.05 812.21"/>
      <path d="M192.12,426.6c-.55.58-10.62-7.82-6.94-17.69l5.92-5.55c-.51-.5-1.72-1.49-1.51-1.9l1.53-2.99c.31-.09,2.28.41,2.24,1.06l-.23,4.06c2.42,2.71,5.69,6.55,5.57,9.88-.16,4.47-2.02,8.28-4.88,11.32l-1.71,1.82ZM196.16,415.54c-.05-3.93-1.89-6.64-4.03-9.29-3.72,3.11-5.9,6.99-3.91,11.54.56,1.27,3.73,2.84,5.02,2.32,1.1-.44,2.94-3.08,2.92-4.57Z"/>
      <path d="M204.19,816.66l-11.01.33.13-9.59,20.03-1.24-.05,8.49c-2.29.92-6.45,1.92-9.11,2.01ZM211.73,809.29c-4.25,4.34-6.56-3.08-10.69.21-1.21.96-1.76,1.45-2.15,1.14l-2.25-1.82c-.96,1.14-.25,3.68,1.23,4.07,3.76,1,5.51-3.28,6.47-2.48l1.91,1.59c.86.71,3.64,1.24,4.1.27.4-.86,1.46-3.13,1.39-2.99Z"/>
      <path d="M235.19,215.97c1.48,1.18.02,6.8-1.7,7.01-1.15-2.15-2.67-5.16-4.08-6.18l-6.17-4.44c3.33-2.35,5.93-4.67,8.32-8.34,3.55,1.23,7.23,5.72,5.62,10.42-3.1-2.33-4.45-5.24-9.26-4.14l7.26,5.67Z"/>
      <path d="M182.75,489.99l-.32,12.28c-.03,1.24-.37,3.66-1.13,4.46s-2.92,1.61-3.8,1.68c5.61-14.83-1.42-27.2,4.09-30.54l1.21,6.13c.14.73,2.45,1.36,2.86,1.4-1.19.54-2.87,2.89-2.92,4.59Z"/>
      <path d="M132.92,448.18c-11.01,11.46-2.01,24.73-9.92,20.42-2.56-9.87,3.38-24.25,9.92-20.42Z"/>
      <path d="M132.64,468.79l-.49,2.8c-.1.57-2.74-.77-2.99-1.36-3.61-8.87,2.67-22.99,8.43-20.63-3.24,6.3-4.98,12.12-4.96,19.2Z"/>
      <path d="M138.34,473.17c-6.17-.31-5.1-9.42-1.42-18.38,1.08-2.63,3.08-4.2,6.8-4.53-3.88,6.97-5.85,13.8-5.37,22.91Z"/>
      <path d="M187.57,493.48l.98-1.61c.95-1.57-2.51-3.07-2.25-3.57l1.03-2.02c.31-.61,1.93-2.16,1.56-2.75l-1.92-3.04-1.07-6.4c-.26-1.56.34-4.76,1.18-6.93,3.94,10.61,4.42,20.63,3.16,31.25l-1.13,1.96c-.25.43-1.8.08-1.82-.42s.1-1.91.37-2.3l1.56-2.23c.31-.44-1-1.4-1.66-1.93Z"/>
      <path d="M168.49,265.15l-11.31-8.97c.97-4.03,2.38-7.54,5.2-11.59.38,8.07,1.57,13.65,6.11,20.56Z"/>
      <path d="M261.22,729.27l-10.46-13.2c-.84-1.07-.26-4.76.33-4.86l7.59,10.2c1.79,2.41,4.8,4.05,2.53,7.87Z"/>
      <path d="M259.9,672.72c-3.72-4.15-6.02-7.59-8.71-12.04l-1.32-2.19c-.34-.56,1.98-1.17,2.39-.67l5.8,6.95c2.14,2.56,3.96,3.97,1.83,7.95Z"/>
      <path d="M218.91,187.84l-8.26-5.32c-5.11-1.55-9.58-2.92-14.75-5.16l11.87,1.73c3.92.57,9.05,3.25,11.15,8.75Z"/>
      <path d="M170.38,444.18c-.19-.6,2.03-2.58,1.53-2.95l-2.39-1.79c-.43-.32-1.09-.96-1.21-.95s.96-.71,2.01-1.45l8.48,9.24c-2.82,1.67-7.51.66-8.41-2.11Z"/>
      <path d="M206.87,185.63c-7.05-2.49-13.62-5.46-21.96-4.63-1.65.16-4.79-.26-6.12-.7,9.27-2.69,20.12-1.32,28.08,5.33Z"/>
      <path d="M192.4,380.53c1.72-.21,3.52,1.59,3.31,3.83-.2,2.11-3.18,4.71-5.07,3.98-1-.39-2.81-2.9-2.56-3.92.3-1.19,1.44-2.95,2.48-4.35l.9,7.37c1.75-1.21,1.92-3.2.93-6.91Z"/>
      <path d="M257.54,417.84c.39.45.89,1.72,1.03,2.17s-2.09.63-2.37.25l-6.4-8.69c1.43-.15,3.08.84,4.25,2.2l3.49,4.07Z"/>
      <path d="M174.35,276.93c-1.27-.05-2.35-3.1-2.14-4.26.23-1.32,2.9-2.8,4-2.05,2.11,1.45,1.41,6.43-1.86,6.31Z"/>
      <path d="M163.55,445.13l-9.31,2.45c.31-1.44,1.7-4.28,2.9-4.96,1.34-.76,3.66.25,6.42,2.51Z"/>
      <polygon points="127.45 513.47 120.31 519.54 122.15 512.22 127.45 513.47"/>
      <path d="M272.74,543.73c-.84-.18-2.63-1.92-3.07-3.04-.73-1.85.13-4.11,2.05-5.46l1.02,8.5Z"/>
      <path class="cls-1" d="M246.68,747.87c-4.92-9.89-7-21.18-8.85-32.76l-6.73-42.13,1.34.46,8.82,48.39c1.85,8.61,4.4,16.44,5.43,26.04Z"/>
      <path class="cls-1" d="M245.14,526.91l.79-7.56c-2.68-8.26-5.49-15.45-6.47-24.03,2.76,6.06,4.13,11.46,5.97,17.31,1.47,4.69,3.2,9.66-.3,14.28Z"/>
      <path class="cls-1" d="M130.84,441.3l-8.51-36.84c-.85-3.69-2.55-7.1.06-11.01l8.48,31.91c.49,5.14,4.38,10.7-.04,15.94Z"/>
      <path class="cls-1" d="M182.37,447.23c8.59-9.6,26.62-9.8,34.36-17.93,1.4.76,3.63,1.17,5.17.75l23.37-6.41,5.78-1.45,2.3-.39c.41-.07,1.06,1.39.74,1.67-.47.41-1.82,1.32-2.67,1.52-10.18,2.48-21.75,5.44-32.36,9.21l-36.7,13.03Z"/>
      <path class="cls-1" d="M227.09,465.18l-33.53,8.09-.79-1.5c2.17-.74,5.85-2.05,8.58-2.43,22.33-3.11,41.26-12.15,62.26-21.77-10.53,8.68-23.59,14.49-36.53,17.61Z"/>
      <path class="cls-1" d="M109.07,674.36l-1.04-7.18-.75-2.84c-.21-.8,2.19-1.82,3.06-2.3l3.51,5.8-4.79,6.51Z"/>
      <path class="cls-1" d="M219.07,249.44c-3.7,3.21-9.18,2.07-12.38-1.61l-3.56-.87c7.06-2.97,13.59-5.13,17.31-1.51l-3.38,1.33c-.49.19.64,1.38,2.02,2.67Z"/>
      <path class="cls-1" d="M170.47,249.22l4.38,8.4c-6.21-.95-6.52-7.97-3.76-11.59,2.01.51,3.72,2.57,4.15,5.05l-4.77-1.86Z"/>
      <path class="cls-1" d="M222.72,238.51l-14.97-.8c4.46-2.5,10.07-2.97,14.97.8Z"/>
      <path class="cls-1" d="M205.74,334.8c-2.7,2.38-6.16,4.81-9.4,6.46-.06,1.63-.47,5.6-1.47,6.87s-4.63.99-6.28-.1c-1.52-1-1.65-4.71-1.22-6.56l-5.27-2.66c-.77-.13-3.35.44-4.09-.31l-3.74-3.77-3.47-1.2c-.75-.26-.82-2.09-1-3.81-3.91-1.11-6.49-5.62-4.26-9.1,4.57,6.24,8.61,11.75,14.88,14.76l6.93,3.32c13.11,1.86,20.53-11.52,21.19-10.98.82.68,2.87,2.41,2.68,2.25l-5.48,4.83Z"/>
      <polygon class="cls-1" points="243.82 786.2 240.43 791.22 236.78 787.85 239.56 782.37 243.82 786.2"/>
      <path class="cls-1" d="M239.79,375.63l-2.29,4.47-2.3-10.06,2.24-3.14.79-7.29c8.88-3.5.15-8.99,6.47-16.52l-1.21,9.83c2.06,3.46.4,6.39-2.5,8.08.98,4.25.59,7.78-3.82,9.49l2.61,5.14Z"/>
      <path class="cls-1" d="M172.82,497.29c1.38,1.47-.3,8.05-3.79,7.72-3.79-.36-6.94-5.49-7.32-9.13l7.64,8.08,3.47-6.67Z"/>
      <path class="cls-1" d="M196.16,415.54c.02,1.5-1.81,4.13-2.92,4.57-1.29.51-4.46-1.05-5.02-2.32-1.99-4.55.18-8.43,3.91-11.54,2.15,2.65,3.98,5.36,4.03,9.29ZM191.58,417.96c1.32-1.58,2.36-3.15,2.58-4.3.19-.96-1.21-3.42-2.18-3.49-1.19-.09-3.19,3.06-2.59,4.09l2.19,3.71Z"/>
      <path class="cls-1" d="M211.73,809.29c.06-.14-.99,2.12-1.39,2.99-.45.97-3.24.44-4.1-.27l-1.91-1.59c-.96-.8-2.71,3.47-6.47,2.48-1.48-.39-2.19-2.93-1.23-4.07l2.25,1.82c.38.31.94-.18,2.15-1.14,4.13-3.28,6.45,4.14,10.69-.21Z"/>
      <path d="M191.58,417.96l-2.19-3.71c-.61-1.03,1.4-4.18,2.59-4.09.97.08,2.37,2.53,2.18,3.49-.22,1.15-1.26,2.72-2.58,4.3Z"/>
    </g>
  </g>
</svg>