<svg xmlns="http://www.w3.org/2000/svg" viewBox="0 0 24 24" width="32" height="32">
  <path fill="#bf8f30" d="M20 6h-2.18c.11-.31.18-.65.18-1 0-1.66-1.34-3-3-3-1.05 0-1.96.54-2.5 1.35l-.5.67-.5-.68C10.96 2.54 10.05 2 9 2 7.34 2 6 3.34 6 5c0 .35.07.69.18 1H4c-1.11 0-1.99.89-1.99 2L2 19c0 1.11.89 2 2 2h16c1.11 0 2-.89 2-2V8c0-1.11-.89-2-2-2zm-5-2c.55 0 1 .45 1 1s-.45 1-1 1-1-.45-1-1 .45-1 1-1zM9 4c.55 0 1 .45 1 1s-.45 1-1 1-1-.45-1-1 .45-1 1-1zm11 15H4V8h16v11zM15 9.5c0 .83-.67 1.5-1.5 1.5h-3c-.83 0-1.5-.67-1.5-1.5V9H7v3c0 2.76 2.24 5 5 5s5-2.24 5-5V9h-2v.5z"/>
</svg>
